# This file uses meters as units for non-parametric coordinates.

mtllib AltarStairs.mtl
g default
v -754.023071 -13.293755 -1186.984741
v 749.596802 -13.293755 -1186.984741
v -754.023071 58.996498 -1186.984741
v 749.596802 58.996498 -1186.984741
v -754.023071 58.996498 -1449.246094
v 749.596802 58.996498 -1449.246094
v -754.023071 -13.293755 -1449.246094
v 749.596802 -13.293755 -1449.246094
v -814.475830 -69.760765 -1418.373779
v 810.049561 -69.760765 -1418.373779
v -814.475830 115.463509 -1418.373779
v 810.049561 115.463509 -1418.373779
v -814.475830 115.463509 -1905.508789
v 810.049561 115.463509 -1905.508789
v -814.475830 -69.760765 -1905.508789
v 810.049561 -69.760765 -1905.508789
v -216.612915 -69.760765 -1902.495605
v 212.186646 -69.760765 -1902.495605
v -216.612915 115.463509 -1902.495605
v 212.186646 115.463509 -1902.495605
v -216.612915 6.078865 -2219.464355
v 212.186646 6.078865 -2219.464355
v -216.612915 -69.760765 -2219.464355
v 212.186646 -69.760765 -2219.464355
vt 0.345500 0.001992
vt 0.096528 0.001992
vt 0.096528 0.832279
vt 0.345500 0.832279
vt 0.637784 0.770485
vt 0.637784 0.001992
vt 0.771825 0.001992
vt 0.771825 0.770485
vt 0.590397 0.993370
vt 0.590397 0.774212
vt 0.752398 0.774213
vt 0.752398 0.993370
vt 0.600837 0.770485
vt 0.600837 0.001992
vt 0.808772 0.001992
vt 0.808772 0.770485
vt 0.001860 0.832279
vt 0.001860 0.001992
vt 0.440167 0.001992
vt 0.440167 0.832279
vt 0.495729 0.993370
vt 0.495729 0.774212
vt 0.791159 0.774213
vt 0.791160 0.993370
vn 0.000000 0.000000 1.000000
vn 0.000000 0.000000 1.000000
vn 0.000000 0.000000 1.000000
vn 0.000000 0.000000 1.000000
vn 0.000000 1.000000 0.000000
vn 0.000000 1.000000 0.000000
vn 0.000000 1.000000 0.000000
vn 0.000000 1.000000 0.000000
vn 0.000000 0.000000 -1.000000
vn 0.000000 0.000000 -1.000000
vn 0.000000 0.000000 -1.000000
vn 0.000000 0.000000 -1.000000
vn 0.000000 0.000000 1.000000
vn 0.000000 0.000000 1.000000
vn 0.000000 0.000000 1.000000
vn 0.000000 0.000000 1.000000
vn 0.000000 1.000000 0.000000
vn 0.000000 1.000000 0.000000
vn 0.000000 1.000000 0.000000
vn 0.000000 1.000000 0.000000
vn 0.000000 0.000000 -1.000000
vn 0.000000 0.000000 -1.000000
vn 0.000000 0.000000 -1.000000
vn 0.000000 0.000000 -1.000000
vn 0.000000 0.000000 1.000000
vn 0.000000 0.000000 1.000000
vn 0.000000 0.000000 1.000000
vn 0.000000 0.000000 1.000000
vn 0.000000 0.945295 -0.326217
vn 0.000000 0.945295 -0.326217
vn 0.000000 0.945295 -0.326217
vn 0.000000 0.945295 -0.326217
vn 0.000000 0.000000 -1.000000
vn 0.000000 0.000000 -1.000000
vn 0.000000 0.000000 -1.000000
vn 0.000000 0.000000 -1.000000
s off
g AltarStairs
usemtl initialShadingGroup
f 1/13/1 2/14/2 4/6/3 3/5/4
f 3/5/5 4/6/6 6/7/7 5/8/8
f 5/8/9 6/7/10 8/15/11 7/16/12
f 9/17/13 10/18/14 12/2/15 11/3/16
f 11/3/17 12/2/18 14/1/19 13/4/20
f 13/4/21 14/1/22 16/19/23 15/20/24
f 17/21/25 18/22/26 20/10/27 19/9/28
f 19/9/29 20/10/30 22/11/31 21/12/32
f 21/12/33 22/11/34 24/23/35 23/24/36
