# This file uses meters as units for non-parametric coordinates.

mtllib Altar.mtl
g default
v -109.048328 1.321747 69.024826
v 106.583051 1.321747 69.024826
v -46.059478 88.955447 39.334792
v 43.594201 88.955447 39.334792
v -46.059478 88.955447 -13.532441
v 43.594201 88.955447 -13.532441
v -109.048328 1.321747 -43.222475
v 106.583051 1.321747 -43.222475
v -113.431853 133.486084 71.306668
v 110.966576 133.486084 71.306668
v 110.966576 133.486084 -45.504317
v -113.431853 133.486084 -45.504317
v -70.007708 88.955447 12.901175
v -153.192238 133.486084 12.901175
v 150.726961 133.486084 12.901175
v 67.542431 88.955447 12.901175
v 115.605035 1.321747 12.901175
v -118.070312 1.321747 12.901175
v -1.232639 1.321747 71.992696
v -1.232639 1.321747 -46.190346
v -1.232639 88.955447 -22.899806
v -1.232639 133.486084 -66.201659
v -1.232639 118.898008 12.901175
v -1.232639 133.486084 92.004009
v -1.232639 88.955447 48.702157
v 54.866969 118.898008 42.103921
v 74.747161 118.898008 12.901175
v 54.866969 118.898008 -16.301571
v -1.232639 118.898008 -26.650242
v -57.332246 118.898008 -16.301571
v -77.212438 118.898008 12.901175
v -57.332246 118.898008 42.103921
v -1.232639 118.898008 52.452592
v -135.257819 133.486076 12.901175
v -100.189990 133.486084 64.413592
v -1.232639 133.486084 82.668212
v 97.724713 133.486084 64.413592
v 132.792542 133.486084 12.901175
v 97.724713 133.486076 -38.611241
v -1.232639 133.486076 -56.865862
v -100.189990 133.486076 -38.611241
v -91.054538 111.220769 59.658129
v -1.232639 111.220769 76.227536
v 88.589261 111.220769 59.658129
v 120.419733 111.220769 12.901175
v 88.589261 111.220769 -33.855779
v -1.232639 111.220769 -50.425186
v -91.054538 111.220769 -33.855779
v -122.885010 111.220769 12.901175
v -104.523546 16.206420 66.669446
v -1.232639 16.206420 69.512761
v 102.058269 16.206420 66.669446
v 110.701615 16.206420 12.901175
v 102.058269 16.206420 -40.867096
v -1.232639 16.206420 -43.710410
v -104.523546 16.206420 -40.867096
v -113.166893 16.206420 12.901175
v -87.873181 19.588524 -32.199713
v -1.232639 19.588493 -34.584692
v 85.407899 19.588524 -32.199713
v 92.657949 19.588524 12.901175
v 85.407910 19.588493 58.002067
v -1.232639 19.588524 60.387040
v -87.873187 19.588493 58.002067
v -95.123237 19.588493 12.901175
v -56.372765 39.852406 -19.614012
v -1.232639 39.852383 -23.696292
v 53.907482 39.852406 -19.614012
v 71.129057 39.852406 12.901175
v 53.907494 39.852383 45.416362
v -1.232639 39.852406 49.498637
v -56.372771 39.852383 45.416362
v -73.594334 39.852383 12.901175
v 54.906831 1.321747 71.348180
v 52.550781 16.206420 68.895292
v 43.880966 19.588509 59.869105
v 24.982021 39.852394 47.930930
v 20.078887 88.955447 45.306636
v 45.537488 111.220769 70.221394
v 57.189326 133.486084 84.501555
v 50.294305 133.486084 76.051204
v 27.978344 118.898008 48.701365
v 38.329928 118.898008 12.901175
v 27.978344 118.898008 -22.899014
v 50.294305 133.486076 -50.248854
v 57.189326 133.486084 -58.699204
v 45.537488 111.220769 -44.419043
v 20.078887 88.955447 -19.504286
v 24.982015 39.852394 -22.128579
v 43.880960 19.588509 -34.066755
v 52.550781 16.206420 -43.092941
v 54.906831 1.321747 -45.545830
v -57.372108 1.321747 71.348180
v -57.372108 1.321747 -45.545830
v -55.016058 16.206420 -43.092941
v -46.346240 19.588509 -34.066755
v -27.447295 39.852394 -22.128579
v -22.544164 88.955447 -19.504286
v -48.002765 111.220769 -44.419043
v -59.654603 133.486084 -58.699204
v -52.759582 133.486076 -50.248854
v -30.443621 118.898008 -22.899014
v -40.795205 118.898008 12.901175
v -30.443621 118.898008 48.701365
v -52.759582 133.486084 76.051204
v -59.654603 133.486084 84.501555
v -48.002765 111.220769 70.221394
v -22.544164 88.955447 45.306636
v -27.447298 39.852394 47.930930
v -46.346243 19.588509 59.869105
v -55.016058 16.206420 68.895292
v -113.511577 1.321747 -16.322327
v 111.046300 1.321747 -16.322327
v 106.334200 16.206420 -15.095883
v 88.994559 19.588524 -10.582790
v 66.060870 39.852406 -4.029434
v 61.019513 88.955447 -0.862770
v 108.881690 111.220769 -11.445101
v 136.314460 133.486084 -17.510476
v 120.081016 133.486076 -13.921263
v 67.540911 118.898008 -2.304651
v 33.154136 118.898008 -4.998920
v -1.232639 118.898008 -7.693189
v -35.619413 118.898008 -4.998920
v -70.006188 118.898008 -2.304651
v -122.546293 133.486076 -13.921263
v -138.779737 133.486084 -17.510476
v -111.346967 111.220769 -11.445101
v -63.484790 88.955447 -0.862770
v -68.526153 39.852394 -4.029434
v -91.459848 19.588509 -10.582790
v -108.799477 16.206420 -15.095883
v -63.484790 88.955447 26.665120
v -111.346967 111.220769 37.247451
v -138.779737 133.486084 43.312827
v -122.546293 133.486076 39.723614
v -70.006188 118.898008 28.107001
v -35.619413 118.898008 30.801270
v -1.232639 118.898008 33.495539
v 33.154136 118.898008 30.801270
v 67.540911 118.898008 28.107001
v 120.081016 133.486084 39.723614
v 136.314460 133.486084 43.312827
v 108.881690 111.220769 37.247451
v 61.019513 88.955447 26.665120
v 66.060876 39.852394 29.831784
v 88.994565 19.588509 36.385142
v 106.334200 16.206420 40.898234
v 111.046300 1.321747 42.124678
v -113.511577 1.321747 42.124678
v -108.799477 16.206420 40.898234
v -91.459848 19.588493 36.385142
v -68.526153 39.852383 29.831784
v 153.770893 128.164168 12.901175
v 139.069702 128.164168 43.922010
v 113.214066 128.164160 72.476604
v 58.359589 128.164160 85.935803
v -1.232639 128.164168 93.588535
v -60.824866 128.164168 85.935803
v -115.679343 128.164160 72.476604
v -141.534956 128.164160 43.922010
v -156.236170 128.164160 12.901175
v -141.534968 128.164168 -18.119659
v -115.679343 128.164160 -46.674254
v -60.824866 128.164160 -60.133452
v -1.232639 128.164160 -67.786185
v 58.359589 128.164168 -60.133452
v 113.214066 128.164160 -46.674254
v 139.069702 128.164160 -18.119659
vt 0.528555 0.078591
vt 0.525773 0.022727
vt 0.592060 0.022727
vt 0.592060 0.078591
vt 0.464756 0.022727
vt 0.470099 0.078591
vt 0.658347 0.022727
vt 0.655565 0.078591
vt 0.538792 0.091284
vt 0.592060 0.091284
vt 0.489759 0.091284
vt 0.714021 0.078591
vt 0.719364 0.022727
vt 0.645328 0.091284
vt 0.553657 0.167337
vt 0.592060 0.167337
vt 0.518307 0.167337
vt 0.694361 0.091284
vt 0.630463 0.167337
vt 0.560840 0.351626
vt 0.592060 0.351626
vt 0.532101 0.351626
vt 0.665814 0.167337
vt 0.623281 0.351626
vt 0.536836 0.435190
vt 0.592060 0.435190
vt 0.486002 0.435190
vt 0.652019 0.351626
vt 0.647284 0.435190
vt 0.592060 0.498780
vt 0.521696 0.498780
vt 0.456926 0.498780
vt 0.698118 0.435190
vt 0.662424 0.498780
vt 0.523078 0.518754
vt 0.592060 0.518754
vt 0.459580 0.518754
vt 0.727194 0.498780
vt 0.661042 0.518754
vt 0.724540 0.518754
vt 0.788044 0.220904
vt 0.785262 0.165040
vt 0.851549 0.165040
vt 0.851549 0.220904
vt 0.724245 0.165040
vt 0.729587 0.220904
vt 0.917836 0.165040
vt 0.915054 0.220904
vt 0.798280 0.233597
vt 0.851549 0.233597
vt 0.749247 0.233597
vt 0.973510 0.220904
vt 0.978853 0.165040
vt 0.904817 0.233597
vt 0.813145 0.309650
vt 0.851549 0.309650
vt 0.777795 0.309650
vt 0.953850 0.233597
vt 0.889952 0.309650
vt 0.820328 0.493939
vt 0.851549 0.493939
vt 0.791590 0.493939
vt 0.925302 0.309650
vt 0.882769 0.493939
vt 0.796325 0.577503
vt 0.851549 0.577503
vt 0.745491 0.577503
vt 0.911507 0.493939
vt 0.906773 0.577503
vt 0.851549 0.641094
vt 0.781185 0.641094
vt 0.716415 0.641094
vt 0.957606 0.577503
vt 0.921912 0.641094
vt 0.782567 0.661067
vt 0.851549 0.661067
vt 0.719069 0.661067
vt 0.986682 0.641094
vt 0.920531 0.661067
vt 0.984029 0.661067
vt 0.369615 0.773737
vt 0.460310 0.773737
vt 0.448444 0.814339
vt 0.369615 0.820451
vt 0.369615 0.727023
vt 0.448444 0.733135
vt 0.527274 0.808228
vt 0.543794 0.773737
vt 0.436579 0.854942
vt 0.369615 0.863451
vt 0.290785 0.814339
vt 0.278920 0.773737
vt 0.436579 0.692532
vt 0.369615 0.684023
vt 0.527274 0.739246
vt 0.290785 0.733135
vt 0.498220 0.839977
vt 0.676859 0.773737
vt 0.647719 0.834578
vt 0.487737 0.916979
vt 0.369615 0.931988
vt 0.302650 0.854942
vt 0.211956 0.808228
vt 0.195436 0.773737
vt 0.498220 0.707497
vt 0.302651 0.692532
vt 0.487737 0.630495
vt 0.369615 0.615486
vt 0.647719 0.712896
vt 0.211956 0.739246
vt 0.596468 0.890581
vt 0.684933 0.842719
vt 0.717973 0.773737
vt 0.369615 0.953164
vt 0.503543 0.936147
vt 0.251493 0.916979
vt 0.241010 0.839977
vt 0.091511 0.834578
vt 0.062370 0.773737
vt 0.596468 0.656893
vt 0.241010 0.707497
vt 0.251492 0.630495
vt 0.503543 0.611328
vt 0.369615 0.594310
vt 0.684933 0.704755
vt 0.091511 0.712896
vt 0.626824 0.906217
vt 0.235686 0.936147
vt 0.142761 0.890582
vt 0.021257 0.773737
vt 0.054297 0.842719
vt 0.626824 0.641257
vt 0.142761 0.656893
vt 0.235686 0.611328
vt 0.054297 0.704755
vt 0.112405 0.906217
vt 0.112405 0.641257
vt 0.127000 0.074703
vt 0.122697 0.018839
vt 0.225234 0.018839
vt 0.225234 0.074703
vt 0.028312 0.018839
vt 0.036577 0.074703
vt 0.327771 0.018839
vt 0.323467 0.074703
vt 0.142836 0.087396
vt 0.225234 0.087396
vt 0.066988 0.087396
vt 0.413891 0.074703
vt 0.422155 0.018839
vt 0.307632 0.087396
vt 0.177354 0.163449
vt 0.225234 0.163449
vt 0.124522 0.163449
vt 0.383480 0.087396
vt 0.273114 0.163449
vt 0.186309 0.347738
vt 0.225234 0.347738
vt 0.143359 0.347738
vt 0.325945 0.163449
vt 0.264159 0.347738
vt 0.139810 0.431302
vt 0.225234 0.431302
vt 0.061177 0.431302
vt 0.307108 0.347738
vt 0.310658 0.431302
vt 0.225234 0.494892
vt 0.116391 0.494892
vt 0.016201 0.494892
vt 0.389290 0.431302
vt 0.334077 0.494892
vt 0.118528 0.514866
vt 0.225234 0.514866
vt 0.020306 0.514866
vt 0.434267 0.494892
vt 0.331939 0.514866
vt 0.430162 0.514866
vt 0.226889 0.019867
vt 0.226889 0.075731
vt 0.124921 0.075731
vt 0.120454 0.019868
vt 0.333323 0.019867
vt 0.328856 0.075731
vt 0.141358 0.088425
vt 0.226889 0.088424
vt 0.031060 0.075731
vt 0.022482 0.019867
vt 0.422718 0.075731
vt 0.431296 0.019867
vt 0.312419 0.088425
vt 0.062628 0.088425
vt 0.177189 0.164477
vt 0.226889 0.164477
vt 0.391150 0.088425
vt 0.276589 0.164477
vt 0.122349 0.164477
vt 0.186484 0.348766
vt 0.226889 0.348766
vt 0.331429 0.164477
vt 0.267293 0.348766
vt 0.141902 0.348766
vt 0.138218 0.432330
vt 0.226889 0.432330
vt 0.311876 0.348766
vt 0.315560 0.432330
vt 0.056596 0.432330
vt 0.226889 0.495921
vt 0.113908 0.495921
vt 0.397182 0.432330
vt 0.339869 0.495921
vt 0.009910 0.495921
vt 0.116127 0.515895
vt 0.226889 0.515894
vt 0.443868 0.495921
vt 0.337651 0.515895
vt 0.014171 0.515895
vt 0.439607 0.515894
vn 0.023856 0.511868 0.858733
vn 0.030395 0.717504 0.695890
vn -0.000000 0.700223 0.713924
vn -0.000000 0.509126 0.860692
vn 0.000000 1.000000 0.000000
vn 0.000000 1.000000 0.000000
vn 0.000000 1.000000 -0.000000
vn 0.000000 1.000000 -0.000000
vn 0.030395 0.717504 -0.695891
vn 0.023856 0.511868 -0.858733
vn -0.000000 0.509126 -0.860692
vn 0.000000 0.700224 -0.713923
vn 0.645371 0.756786 -0.103789
vn 0.433542 0.891947 -0.128341
vn 0.464598 0.885522 0.000000
vn 0.658155 0.752883 0.000000
vn -0.433542 0.891947 -0.128341
vn -0.645371 0.756786 -0.103789
vn -0.658155 0.752883 0.000000
vn -0.464597 0.885522 0.000000
vn 0.149816 -0.570096 0.807803
vn -0.000000 -0.555679 0.831397
vn -0.000000 -0.746150 0.665778
vn 0.120856 -0.759104 0.639652
vn 0.549942 -0.745582 -0.376393
vn 0.614463 -0.788946 0.000000
vn 0.422704 -0.906268 0.000000
vn 0.383293 -0.881564 -0.275556
vn 0.000000 -0.555679 -0.831397
vn 0.149816 -0.570096 -0.807803
vn 0.120856 -0.759104 -0.639652
vn 0.000000 -0.746150 -0.665778
vn -0.614463 -0.788946 -0.000000
vn -0.549942 -0.745582 -0.376393
vn -0.383293 -0.881564 -0.275556
vn -0.422704 -0.906268 -0.000000
vn -0.549942 -0.745582 0.376393
vn -0.383293 -0.881564 0.275556
vn 0.000000 1.000000 0.000000
vn 0.000000 1.000000 0.000000
vn 0.549942 -0.745582 0.376393
vn 0.383293 -0.881564 0.275556
vn 0.433542 0.891947 0.128341
vn 0.645371 0.756786 0.103789
vn -0.645370 0.756786 0.103789
vn -0.433542 0.891947 0.128341
vn -0.023856 0.511868 -0.858733
vn -0.030395 0.717504 -0.695891
vn -0.149816 -0.570096 -0.807803
vn -0.120856 -0.759104 -0.639652
vn 0.000000 1.000000 -0.000000
vn 0.000000 1.000000 0.000000
vn 0.000000 1.000000 0.000000
vn -0.149816 -0.570096 0.807803
vn -0.120856 -0.759104 0.639652
vn -0.030395 0.717505 0.695890
vn -0.023856 0.511868 0.858733
vn -0.182005 0.983298 -0.000000
vn -0.169998 0.978748 -0.114689
vn -0.160763 0.980785 -0.110529
vn -0.159886 0.987135 -0.000000
vn -0.160763 0.980785 0.110529
vn -0.169998 0.978748 0.114689
vn -0.057765 0.947005 0.315981
vn -0.055868 0.952341 0.299876
vn -0.000000 0.954846 0.297101
vn -0.000000 0.942208 0.335028
vn 0.055868 0.952341 0.299876
vn 0.057765 0.947005 0.315981
vn 0.169998 0.978748 0.114689
vn 0.160763 0.980785 0.110529
vn 0.159886 0.987135 0.000000
vn 0.182005 0.983298 -0.000000
vn 0.160763 0.980785 -0.110529
vn 0.169998 0.978748 -0.114689
vn 0.057765 0.947005 -0.315982
vn 0.055868 0.952341 -0.299876
vn -0.000000 0.954846 -0.297101
vn -0.000000 0.942208 -0.335028
vn -0.055868 0.952341 -0.299876
vn -0.057765 0.947005 -0.315982
vn -0.261740 0.948618 0.177811
vn -0.301858 0.953353 0.000000
vn -0.085893 0.880290 0.466595
vn 0.000000 0.854366 0.519671
vn 0.085893 0.880291 0.466595
vn 0.261739 0.948618 0.177811
vn 0.301858 0.953353 0.000000
vn 0.261739 0.948618 -0.177811
vn -0.000000 0.854366 -0.519671
vn 0.085893 0.880291 -0.466594
vn -0.085893 0.880291 -0.466595
vn -0.261739 0.948618 -0.177810
vn -0.139954 -0.417290 0.897932
vn -0.000000 -0.449488 0.893286
vn 0.139954 -0.417290 0.897932
vn 0.664240 -0.574174 0.478653
vn 0.765721 -0.643173 -0.000000
vn 0.664240 -0.574174 -0.478653
vn 0.139954 -0.417290 -0.897932
vn 0.000000 -0.449488 -0.893286
vn -0.139954 -0.417290 -0.897932
vn -0.664240 -0.574174 -0.478653
vn -0.765721 -0.643172 0.000000
vn -0.664240 -0.574174 0.478653
vn -0.027595 0.166789 0.985606
vn -0.000000 0.164345 0.986403
vn 0.027595 0.166789 0.985606
vn 0.938783 0.309638 0.151033
vn 0.949791 0.312886 -0.000000
vn 0.938783 0.309638 -0.151033
vn 0.000000 0.164345 -0.986403
vn 0.027595 0.166789 -0.985606
vn -0.027595 0.166789 -0.985606
vn -0.938783 0.309638 -0.151033
vn -0.949791 0.312886 0.000000
vn -0.938783 0.309638 0.151033
vn -0.096815 0.268806 -0.958316
vn 0.000000 0.240963 -0.970534
vn 0.096815 0.268806 -0.958316
vn 0.776053 0.455098 -0.436609
vn 0.904628 0.426202 0.000000
vn 0.776053 0.455098 0.436609
vn 0.096815 0.268806 0.958316
vn -0.000000 0.240963 0.970534
vn -0.096815 0.268806 0.958316
vn -0.776053 0.455098 0.436609
vn -0.904628 0.426202 0.000000
vn -0.776053 0.455098 -0.436608
vn 0.373615 0.587604 0.717728
vn 0.444553 0.270279 0.854003
vn 0.203610 0.896030 0.394554
vn 0.368803 0.425661 0.826315
vn 0.365169 -0.483775 0.795370
vn 0.256069 -0.828464 0.498072
vn 0.349066 -0.654591 0.670569
vn -0.102404 0.975097 -0.196723
vn 0.206766 0.894134 0.397206
vn -0.131185 0.958791 -0.252012
vn -0.102405 0.975097 0.196723
vn -0.131185 0.958791 0.252012
vn 0.206766 0.894134 -0.397205
vn 0.256069 -0.828464 -0.498072
vn 0.349066 -0.654591 -0.670569
vn 0.365169 -0.483775 -0.795370
vn 0.368803 0.425661 -0.826316
vn 0.203610 0.896030 -0.394554
vn 0.373615 0.587604 -0.717728
vn 0.444553 0.270279 -0.854003
vn -0.373615 0.587604 -0.717728
vn -0.444553 0.270279 -0.854003
vn -0.203610 0.896030 -0.394554
vn -0.368803 0.425661 -0.826316
vn -0.365169 -0.483775 -0.795370
vn -0.256069 -0.828464 -0.498072
vn -0.349066 -0.654591 -0.670569
vn -0.206766 0.894134 -0.397205
vn 0.102405 0.975097 0.196723
vn 0.131185 0.958791 0.252012
vn 0.102404 0.975097 -0.196723
vn 0.131185 0.958791 -0.252012
vn -0.206766 0.894134 0.397206
vn -0.256069 -0.828464 0.498073
vn -0.349066 -0.654591 0.670569
vn -0.365169 -0.483775 0.795370
vn -0.368803 0.425661 0.826316
vn -0.203610 0.896031 0.394553
vn -0.373615 0.587604 0.717728
vn -0.444553 0.270279 0.854003
s 1
g Altar
usemtl initialShadingGroup
f 75/145/1 76/151/2 63/147/3 51/141/4
f 23/81/5 83/82/6 122/83/7 123/84/8
f 90/184/9 91/180/10 55/179/11 59/185/12
f 114/8/13 115/14/14 61/10/15 53/4/16
f 131/49/17 132/41/18 57/44/19 65/50/20
f 157/171/21 158/167/22 43/163/23 79/166/24
f 169/34/25 154/30/26 45/26/27 118/29/28
f 166/207/29 167/208/30 87/202/31 47/203/32
f 162/70/33 163/71/34 128/65/35 49/66/36
f 161/74/37 162/70/33 49/66/36 134/69/38
f 139/85/39 140/86/40 83/82/6 23/81/5
f 154/30/26 155/31/41 144/25/42 45/26/27
f 147/9/43 148/1/44 53/4/16 61/10/15
f 151/48/45 152/54/46 65/50/20 57/44/19
f 95/183/47 96/190/48 59/185/12 55/179/11
f 165/210/49 166/207/29 47/203/32 99/205/50
f 23/81/5 123/84/8 124/91/51 103/92/52
f 103/92/52 138/96/53 139/85/39 23/81/5
f 158/167/22 159/168/54 107/162/55 43/163/23
f 110/146/56 111/138/57 51/141/4 63/147/3
f 27/88/58 141/95/59 142/109/60 38/98/61
f 38/98/61 120/99/62 121/87/63 27/88/58
f 84/89/64 85/100/65 40/101/66 29/90/67
f 40/101/66 101/116/68 102/102/69 29/90/67
f 125/103/70 126/118/71 34/119/72 31/104/73
f 34/119/72 136/126/74 137/110/75 31/104/73
f 104/106/76 105/122/77 36/108/78 33/94/79
f 81/107/80 82/93/81 33/94/79 36/108/78
f 135/135/82 136/126/74 34/119/72 14/130/83
f 105/122/77 106/134/84 24/124/85 36/108/78
f 80/123/86 81/107/80 36/108/78 24/124/85
f 38/98/61 142/109/60 143/125/87 15/113/88
f 119/112/89 120/99/62 38/98/61 15/113/88
f 22/114/90 40/101/66 85/100/65 86/115/91
f 100/128/92 101/116/68 40/101/66 22/114/90
f 14/130/83 34/119/72 126/118/71 127/131/93
f 107/162/55 108/157/94 25/158/95 43/163/23
f 78/161/96 79/166/24 43/163/23 25/158/95
f 144/25/42 145/20/97 16/21/98 45/26/27
f 117/24/99 118/29/28 45/26/27 16/21/98
f 87/202/31 88/197/100 21/198/101 47/203/32
f 98/200/102 99/205/50 47/203/32 21/198/101
f 128/65/35 129/60/103 13/61/104 49/66/36
f 133/64/105 134/69/38 49/66/36 13/61/104
f 111/138/57 93/139/106 19/140/107 51/141/4
f 74/144/108 75/145/1 51/141/4 19/140/107
f 148/1/44 149/2/109 17/3/110 53/4/16
f 113/7/111 114/8/13 53/4/16 17/3/110
f 20/178/112 55/179/11 91/180/10 92/181/113
f 94/182/114 95/183/47 55/179/11 20/178/112
f 132/41/18 112/42/115 18/43/116 57/44/19
f 150/47/117 151/48/45 57/44/19 18/43/116
f 96/190/48 97/195/118 67/193/119 59/185/12
f 89/192/120 90/184/9 59/185/12 67/193/119
f 115/14/14 116/19/121 69/16/122 61/10/15
f 146/15/123 147/9/43 61/10/15 69/16/122
f 76/151/2 77/156/124 71/153/125 63/147/3
f 109/152/126 110/146/56 63/147/3 71/153/125
f 152/54/46 153/59/127 73/56/128 65/50/20
f 130/55/129 131/49/17 65/50/20 73/56/128
f 97/195/118 98/200/102 21/198/101 67/193/119
f 88/197/100 89/192/120 67/193/119 21/198/101
f 16/21/98 69/16/122 116/19/121 117/24/99
f 145/20/97 146/15/123 69/16/122 16/21/98
f 25/158/95 71/153/125 77/156/124 78/161/96
f 108/157/94 109/152/126 71/153/125 25/158/95
f 13/61/104 73/56/128 153/59/127 133/64/105
f 129/60/103 130/55/129 73/56/128 13/61/104
f 52/149/130 75/145/1 74/144/108 2/150/131
f 62/155/132 76/151/2 75/145/1 52/149/130
f 70/160/133 77/156/124 76/151/2 62/155/132
f 78/161/96 77/156/124 70/160/133 4/165/134
f 44/170/135 79/166/24 78/161/96 4/165/134
f 156/175/136 157/171/21 79/166/24 44/170/135
f 37/120/137 81/107/80 80/123/86 10/132/138
f 26/105/139 82/93/81 81/107/80 37/120/137
f 140/86/40 141/95/59 27/88/58 83/82/6
f 121/87/63 122/83/7 83/82/6 27/88/58
f 39/111/140 85/100/65 84/89/64 28/97/141
f 86/115/91 85/100/65 39/111/140 11/127/142
f 46/206/143 87/202/31 167/208/30 168/211/144
f 6/201/145 88/197/100 87/202/31 46/206/143
f 68/196/146 89/192/120 88/197/100 6/201/145
f 60/191/147 90/184/9 89/192/120 68/196/146
f 54/186/148 91/180/10 90/184/9 60/191/147
f 92/181/113 91/180/10 54/186/148 8/187/149
f 56/188/150 95/183/47 94/182/114 7/189/151
f 58/194/152 96/190/48 95/183/47 56/188/150
f 66/199/153 97/195/118 96/190/48 58/194/152
f 5/204/154 98/200/102 97/195/118 66/199/153
f 48/209/155 99/205/50 98/200/102 5/204/154
f 164/214/156 165/210/49 99/205/50 48/209/155
f 12/136/157 41/129/158 101/116/68 100/128/92
f 102/102/69 101/116/68 41/129/158 30/117/159
f 103/92/52 124/91/51 125/103/70 31/104/73
f 137/110/75 138/96/53 103/92/52 31/104/73
f 35/133/160 105/122/77 104/106/76 32/121/161
f 9/137/162 106/134/84 105/122/77 35/133/160
f 42/164/163 107/162/55 159/168/54 160/169/164
f 3/159/165 108/157/94 107/162/55 42/164/163
f 72/154/166 109/152/126 108/157/94 3/159/165
f 64/148/167 110/146/56 109/152/126 72/154/166
f 50/143/168 111/138/57 110/146/56 64/148/167
f 1/142/169 93/139/106 111/138/57 50/143/168
f 54/12/148 114/8/13 113/7/111 8/13/149
f 60/18/147 115/14/14 114/8/13 54/12/148
f 68/23/146 116/19/121 115/14/14 60/18/147
f 117/24/99 116/19/121 68/23/146 6/28/145
f 46/33/143 118/29/28 117/24/99 6/28/145
f 168/38/144 169/34/25 118/29/28 46/33/143
f 11/127/142 39/111/140 120/99/62 119/112/89
f 121/87/63 120/99/62 39/111/140 28/97/141
f 84/89/64 122/83/7 121/87/63 28/97/141
f 123/84/8 122/83/7 84/89/64 29/90/67
f 124/91/51 123/84/8 29/90/67 102/102/69
f 125/103/70 124/91/51 102/102/69 30/117/159
f 41/129/158 126/118/71 125/103/70 30/117/159
f 127/131/93 126/118/71 41/129/158 12/136/157
f 48/67/155 128/65/35 163/71/34 164/72/156
f 5/62/154 129/60/103 128/65/35 48/67/155
f 66/57/153 130/55/129 129/60/103 5/62/154
f 58/51/152 131/49/17 130/55/129 66/57/153
f 56/46/150 132/41/18 131/49/17 58/51/152
f 7/45/151 112/42/115 132/41/18 56/46/150
f 42/73/163 134/69/38 133/64/105 3/68/165
f 160/78/164 161/74/37 134/69/38 42/73/163
f 9/137/162 35/133/160 136/126/74 135/135/82
f 137/110/75 136/126/74 35/133/160 32/121/161
f 32/121/161 104/106/76 138/96/53 137/110/75
f 139/85/39 138/96/53 104/106/76 33/94/79
f 82/93/81 140/86/40 139/85/39 33/94/79
f 26/105/139 141/95/59 140/86/40 82/93/81
f 142/109/60 141/95/59 26/105/139 37/120/137
f 143/125/87 142/109/60 37/120/137 10/132/138
f 44/27/135 144/25/42 155/31/41 156/32/136
f 4/22/134 145/20/97 144/25/42 44/27/135
f 70/17/133 146/15/123 145/20/97 4/22/134
f 62/11/132 147/9/43 146/15/123 70/17/133
f 52/6/130 148/1/44 147/9/43 62/11/132
f 2/5/131 149/2/109 148/1/44 52/6/130
f 50/52/168 151/48/45 150/47/117 1/53/169
f 64/58/167 152/54/46 151/48/45 50/52/168
f 72/63/166 153/59/127 152/54/46 64/58/167
f 133/64/105 153/59/127 72/63/166 3/68/165
f 143/35/87 155/31/41 154/30/26 15/36/88
f 156/32/136 155/31/41 143/35/87 10/37/138
f 80/176/86 157/171/21 156/175/136 10/177/138
f 24/173/85 158/167/22 157/171/21 80/176/86
f 106/172/84 159/168/54 158/167/22 24/173/85
f 160/169/164 159/168/54 106/172/84 9/174/162
f 135/79/82 161/74/37 160/78/164 9/80/162
f 14/76/83 162/70/33 161/74/37 135/79/82
f 127/75/93 163/71/34 162/70/33 14/76/83
f 164/72/156 163/71/34 127/75/93 12/77/157
f 100/215/92 165/210/49 164/214/156 12/217/157
f 22/213/90 166/207/29 165/210/49 100/215/92
f 86/212/91 167/208/30 166/207/29 22/213/90
f 168/211/144 167/208/30 86/212/91 11/216/142
f 119/39/89 169/34/25 168/38/144 11/40/142
f 15/36/88 154/30/26 169/34/25 119/39/89
