# This file uses meters as units for non-parametric coordinates.

mtllib Creature_OBJ.mtl
g default
v -100.000000 30.484468 100.000000
v 0.000000 30.484468 92.731606
v -100.000000 107.470467 70.160522
v -0.000008 80.214523 62.544155
v -100.000000 107.470467 -70.160522
v -0.000008 80.214523 -62.544155
v -100.000000 30.484467 -100.000000
v 0.000000 30.484467 -92.731613
v 100.000000 30.484467 -69.649689
v 100.000000 25.654320 69.649689
v 100.000000 57.757702 -43.561806
v 100.000000 57.757702 43.561806
v 200.000000 17.971935 -34.668324
v 200.000000 17.971935 34.668324
v 200.000000 39.943344 -19.940300
v 200.000000 39.943344 19.940300
v 300.000000 8.764359 -13.944719
v 300.000000 10.674164 13.944719
v 300.000000 25.514542 -8.020634
v 300.000000 25.514542 8.020634
v 400.000000 12.027222 -13.944719
v 400.000000 12.186836 13.944719
v 400.000000 27.020967 -8.898685
v 400.000000 27.020967 8.898685
v 500.000000 23.127094 -12.499337
v 500.000000 23.127094 12.499337
v 500.000000 35.737961 -13.290313
v 500.000000 35.737961 13.290313
v -200.000000 17.392963 -85.346794
v -200.000000 17.392963 85.346794
v -200.000000 112.790749 59.879761
v -200.000000 112.790749 -59.879761
v -300.000000 10.830727 -54.466034
v -300.000000 10.830727 54.466034
v -300.000000 59.695923 54.466034
v -300.000000 59.695923 -54.466034
v -400.000000 0.000000 -22.110523
v -400.000000 0.000000 22.110523
v -400.000000 26.876097 22.110523
v -400.000000 26.876097 -22.110523
v -456.440704 0.000000 -12.907277
v -456.440704 0.000000 12.907277
v -456.440704 19.953121 12.907277
v -456.440704 19.953121 -12.907277
v -100.000000 126.974594 0.000000
v -0.000008 99.718658 0.000000
v 100.000000 77.261826 0.000000
v 200.000000 59.447472 0.000000
v 300.000000 42.154221 0.000000
v 400.000000 39.031006 0.000000
v 500.000000 47.313942 0.000000
v 500.000000 14.951008 0.000000
v 400.000000 -1.408619 0.000004
v 300.000000 -10.305939 0.000004
v 200.000000 -10.305939 0.000004
v 100.000000 -9.632339 0.000000
v 0.000000 -17.820717 0.000004
v -100.000000 -31.641953 0.000004
v -200.000000 -31.641953 0.000004
v -300.000000 -21.926575 0.000004
v -400.000000 -10.562069 0.000004
v -456.440704 0.000000 0.000000
v -456.440704 28.751633 0.000000
v -400.000000 46.380226 0.000000
v -300.000000 83.071487 0.000000
v -200.000000 132.294876 0.000000
vt 0.326884 0.450999
vt 0.408716 0.381836
vt 0.450803 0.436892
vt 0.379895 0.522287
vt 0.429036 0.572651
vt 0.502767 0.491322
vt 0.556303 0.542027
vt 0.479695 0.619125
vt 0.608274 0.581182
vt 0.542408 0.671241
vt 0.330827 0.261244
vt 0.193843 0.352236
vt 0.941358 0.062099
vt 0.920171 0.039132
vt 0.953603 0.079378
vt 0.947740 0.073027
vt 0.183910 0.955145
vt 0.108423 0.921420
vt 0.156822 0.927578
vt 0.173818 0.937213
vt 0.478308 0.206943
vt 0.672186 0.474801
vt 0.634853 0.443600
vt 0.589332 0.401291
vt 0.513111 0.311547
vt 0.547039 0.354761
vt 0.624759 0.175513
vt 0.750908 0.351227
vt 0.720074 0.328148
vt 0.688773 0.302330
vt 0.641543 0.237889
vt 0.663880 0.269984
vt 0.752570 0.137307
vt 0.830043 0.232093
vt 0.811596 0.218194
vt 0.792659 0.202486
vt 0.766127 0.165407
vt 0.777925 0.182689
vt 0.846665 0.083981
vt 0.899591 0.143250
vt 0.888473 0.132405
vt 0.878141 0.121678
vt 0.857965 0.099093
vt 0.868044 0.110730
vt 0.924819 0.048876
vt 0.930819 0.055101
vt 0.088836 0.507774
vt 0.473798 0.759581
vt 0.315602 0.615563
vt 0.211144 0.574561
vt 0.363850 0.648663
vt 0.407389 0.685557
vt 0.062929 0.678957
vt 0.376727 0.843413
vt 0.223870 0.703797
vt 0.158906 0.688209
vt 0.288990 0.742186
vt 0.344638 0.790050
vt 0.084961 0.841764
vt 0.251342 0.925343
vt 0.162782 0.842608
vt 0.122377 0.837644
vt 0.203481 0.859265
vt 0.233061 0.890731
vt 0.141097 0.915526
vt 0.120103 0.913101
vt 0.180806 0.968693
vt 0.260423 0.959955
vt 0.410207 0.925469
vt 0.544807 0.860923
vt 0.650015 0.765315
vt 0.722987 0.644540
vt 0.774224 0.509653
vt 0.811023 0.370366
vt 0.855474 0.246030
vt 0.913941 0.155297
vt 0.963060 0.084589
vn 0.124622 0.424770 0.896683
vn 0.124622 0.424770 0.896683
vn 0.124622 0.424770 0.896683
vn 0.124622 0.424770 0.896683
vn 0.262676 0.925719 -0.272113
vn 0.262676 0.925719 -0.272113
vn 0.262676 0.925719 -0.272113
vn 0.262676 0.925719 -0.272113
vn 0.124622 0.424770 -0.896683
vn 0.124622 0.424770 -0.896683
vn 0.124622 0.424770 -0.896683
vn 0.124622 0.424770 -0.896683
vn 0.077792 -0.865033 -0.495648
vn 0.077792 -0.865033 -0.495648
vn 0.077792 -0.865033 -0.495648
vn 0.077792 -0.865033 -0.495648
vn 1.000000 0.000000 0.000000
vn 1.000000 0.000000 0.000000
vn 1.000000 0.000000 0.000000
vn 1.000000 0.000000 0.000000
vn -1.000000 0.000000 0.000000
vn -1.000000 0.000000 0.000000
vn -1.000000 0.000000 0.000000
vn -1.000000 0.000000 0.000000
vn 0.090772 -0.874610 -0.476254
vn 0.090772 -0.874610 -0.476254
vn 0.090772 -0.874610 -0.476254
vn 0.090772 -0.874610 -0.476254
vn 0.229746 0.574259 -0.785776
vn 0.229746 0.574259 -0.785776
vn 0.229746 0.574259 -0.785776
vn 0.229746 0.574259 -0.785776
vn 0.236611 0.911931 -0.335258
vn 0.236611 0.911931 -0.335258
vn 0.236611 0.911931 -0.335258
vn 0.236611 0.911931 -0.335258
vn 0.243090 0.549634 0.799256
vn 0.243090 0.549634 0.799256
vn 0.243090 0.549634 0.799256
vn 0.243090 0.549634 0.799256
vn 0.040730 -0.835589 -0.547843
vn 0.040730 -0.835589 -0.547843
vn 0.040730 -0.835589 -0.547843
vn 0.040730 -0.835589 -0.547843
vn 0.306814 0.607362 -0.732786
vn 0.306814 0.607362 -0.732787
vn 0.306814 0.607362 -0.732786
vn 0.306814 0.607362 -0.732786
vn 0.208899 0.833278 -0.511868
vn 0.208899 0.833278 -0.511868
vn 0.208899 0.833278 -0.511868
vn 0.208899 0.833278 -0.511868
vn 0.296686 0.575326 0.762219
vn 0.296686 0.575326 0.762219
vn 0.296686 0.575326 0.762219
vn 0.296686 0.575326 0.762219
vn 0.039287 -0.715812 -0.697187
vn 0.039287 -0.715812 -0.697187
vn 0.039287 -0.715812 -0.697187
vn 0.039287 -0.715812 -0.697187
vn 0.195767 0.461493 -0.865274
vn 0.195767 0.461493 -0.865274
vn 0.195767 0.461493 -0.865274
vn 0.195767 0.461493 -0.865274
vn 0.142714 0.605617 -0.782854
vn 0.142714 0.605617 -0.782854
vn 0.142714 0.605617 -0.782854
vn 0.142714 0.605618 -0.782854
vn 0.191865 0.480189 0.855924
vn 0.191865 0.480189 0.855924
vn 0.191865 0.480189 0.855924
vn 0.191865 0.480189 0.855924
vn 0.039560 -0.650646 -0.758350
vn 0.039560 -0.650646 -0.758350
vn 0.039560 -0.650646 -0.758350
vn 0.039560 -0.650646 -0.758351
vn -0.011938 0.326604 -0.945086
vn -0.011938 0.326604 -0.945086
vn -0.011938 0.326604 -0.945086
vn -0.011938 0.326604 -0.945086
vn 0.000330 0.508505 -0.861059
vn 0.000330 0.508505 -0.861059
vn 0.000330 0.508505 -0.861059
vn 0.000330 0.508505 -0.861059
vn -0.009352 0.346731 0.937918
vn -0.009352 0.346731 0.937918
vn -0.009352 0.346731 0.937918
vn -0.009352 0.346731 0.937918
vn 0.110208 -0.769587 -0.628960
vn 0.110208 -0.769587 -0.628960
vn 0.110208 -0.769587 -0.628960
vn 0.110208 -0.769587 -0.628960
vn -0.029641 0.152277 -0.987893
vn -0.029641 0.152277 -0.987893
vn -0.029641 0.152277 -0.987893
vn -0.029641 0.152277 -0.987893
vn -0.074032 0.683327 -0.726349
vn -0.074032 0.683327 -0.726349
vn -0.074032 0.683327 -0.726350
vn -0.074032 0.683327 -0.726349
vn -0.029603 0.153142 0.987761
vn -0.029603 0.153142 0.987761
vn -0.029603 0.153142 0.987761
vn -0.029603 0.153142 0.987761
vn 0.018449 -0.857442 -0.514249
vn 0.018449 -0.857442 -0.514249
vn 0.018449 -0.857442 -0.514249
vn 0.018449 -0.857442 -0.514249
vn -0.129481 0.302924 0.944178
vn -0.129481 0.302924 0.944178
vn -0.129481 0.302924 0.944178
vn -0.129481 0.302924 0.944178
vn 0.036166 0.957207 -0.287134
vn 0.036166 0.957207 -0.287134
vn 0.036166 0.957207 -0.287134
vn 0.036166 0.957207 -0.287134
vn -0.129481 0.302924 -0.944178
vn -0.129481 0.302924 -0.944178
vn -0.129481 0.302924 -0.944178
vn -0.129481 0.302924 -0.944178
vn -0.091193 -0.859551 -0.502848
vn -0.091193 -0.859551 -0.502848
vn -0.091193 -0.859551 -0.502848
vn -0.091193 -0.859551 -0.502848
vn -0.224670 0.169400 0.959597
vn -0.224670 0.169400 0.959597
vn -0.224670 0.169400 0.959597
vn -0.224670 0.169400 0.959597
vn -0.438944 0.841305 -0.315490
vn -0.438944 0.841305 -0.315490
vn -0.438944 0.841305 -0.315490
vn -0.438944 0.841305 -0.315490
vn -0.224670 0.169400 -0.959597
vn -0.224670 0.169400 -0.959597
vn -0.224670 0.169400 -0.959597
vn -0.224670 0.169400 -0.959597
vn -0.081704 -0.867473 -0.490730
vn -0.081704 -0.867473 -0.490729
vn -0.081704 -0.867473 -0.490729
vn -0.081704 -0.867473 -0.490730
vn -0.307842 0.000000 0.951437
vn -0.307842 0.000000 0.951437
vn -0.307842 0.000000 0.951437
vn -0.307842 0.000000 0.951437
vn -0.357086 0.814997 -0.456365
vn -0.357086 0.814997 -0.456365
vn -0.357086 0.814997 -0.456365
vn -0.357086 0.814997 -0.456365
vn -0.307842 0.000000 -0.951437
vn -0.307842 0.000000 -0.951437
vn -0.307842 0.000000 -0.951437
vn -0.307842 0.000000 -0.951437
vn -0.112408 -0.951330 -0.286940
vn -0.112408 -0.951330 -0.286940
vn -0.112408 -0.951330 -0.286940
vn -0.112408 -0.951330 -0.286940
vn -0.160935 0.000000 0.986965
vn -0.160935 0.000000 0.986965
vn -0.160935 0.000000 0.986965
vn -0.160935 0.000000 0.986965
vn -0.215240 0.759505 -0.613859
vn -0.215240 0.759505 -0.613859
vn -0.215240 0.759506 -0.613859
vn -0.215240 0.759505 -0.613859
vn -0.160935 0.000000 -0.986965
vn -0.160935 0.000000 -0.986965
vn -0.160935 0.000000 -0.986965
vn -0.160935 0.000000 -0.986965
vn 0.262676 0.925719 0.272113
vn 0.262676 0.925719 0.272113
vn 0.262676 0.925719 0.272113
vn 0.262676 0.925719 0.272113
vn 0.236611 0.911931 0.335258
vn 0.236611 0.911931 0.335258
vn 0.236611 0.911931 0.335258
vn 0.236611 0.911931 0.335258
vn 0.208899 0.833278 0.511868
vn 0.208899 0.833278 0.511868
vn 0.208899 0.833278 0.511868
vn 0.208899 0.833278 0.511868
vn 0.142714 0.605617 0.782854
vn 0.142714 0.605617 0.782854
vn 0.142714 0.605617 0.782854
vn 0.142714 0.605618 0.782854
vn 0.000330 0.508505 0.861059
vn 0.000330 0.508505 0.861059
vn 0.000330 0.508505 0.861059
vn 0.000330 0.508505 0.861059
vn -0.074032 0.683327 0.726350
vn -0.074032 0.683327 0.726349
vn -0.074032 0.683327 0.726349
vn -0.074032 0.683327 0.726349
vn 1.000000 -0.000000 0.000000
vn 1.000000 -0.000000 0.000000
vn 1.000000 -0.000000 0.000000
vn 1.000000 -0.000000 0.000000
vn 0.109314 -0.767388 0.631795
vn 0.109314 -0.767388 0.631796
vn 0.109314 -0.767388 0.631796
vn 0.109314 -0.767388 0.631795
vn 0.032661 -0.627498 0.777933
vn 0.032661 -0.627498 0.777933
vn 0.032661 -0.627498 0.777933
vn 0.032661 -0.627498 0.777933
vn 0.048064 -0.701620 0.710928
vn 0.048064 -0.701620 0.710928
vn 0.048064 -0.701620 0.710928
vn 0.048064 -0.701620 0.710928
vn 0.055249 -0.852652 0.519550
vn 0.055249 -0.852652 0.519550
vn 0.055249 -0.852652 0.519550
vn 0.055249 -0.852652 0.519550
vn 0.067597 -0.887073 0.456654
vn 0.067597 -0.887073 0.456654
vn 0.067597 -0.887073 0.456654
vn 0.067597 -0.887073 0.456654
vn 0.077792 -0.865033 0.495648
vn 0.077792 -0.865033 0.495648
vn 0.077792 -0.865033 0.495648
vn 0.077792 -0.865033 0.495648
vn 0.018449 -0.857442 0.514249
vn 0.018449 -0.857442 0.514249
vn 0.018449 -0.857442 0.514249
vn 0.018449 -0.857442 0.514249
vn -0.091193 -0.859551 0.502848
vn -0.091193 -0.859551 0.502848
vn -0.091193 -0.859551 0.502848
vn -0.091193 -0.859551 0.502848
vn -0.081704 -0.867473 0.490730
vn -0.081704 -0.867473 0.490730
vn -0.081704 -0.867473 0.490730
vn -0.081704 -0.867473 0.490730
vn -0.112408 -0.951331 0.286940
vn -0.112408 -0.951331 0.286940
vn -0.112408 -0.951331 0.286940
vn -0.112408 -0.951331 0.286940
vn -1.000000 0.000000 0.000000
vn -1.000000 0.000000 0.000000
vn -1.000000 0.000000 0.000000
vn -1.000000 0.000000 0.000000
vn -0.215240 0.759505 0.613860
vn -0.215240 0.759505 0.613860
vn -0.215240 0.759505 0.613860
vn -0.215240 0.759505 0.613860
vn -0.357086 0.814997 0.456365
vn -0.357086 0.814997 0.456365
vn -0.357086 0.814997 0.456365
vn -0.357086 0.814997 0.456365
vn -0.438944 0.841305 0.315490
vn -0.438944 0.841305 0.315490
vn -0.438944 0.841305 0.315490
vn -0.438944 0.841305 0.315490
vn 0.036166 0.957207 0.287134
vn 0.036166 0.957207 0.287134
vn 0.036166 0.957207 0.287134
vn 0.036166 0.957207 0.287134
s off
g pCube1
usemtl initialShadingGroup
f 1/1/1 2/2/2 4/3/3 3/4/4
f 45/5/5 46/6/6 6/7/7 5/8/8
f 5/8/9 6/7/10 8/9/11 7/10/12
f 7/10/13 8/9/14 57/72/15 58/71/16
f 51/13/17 52/77/18 25/15/19 27/16/20
f 41/17/21 62/67/22 63/19/23 44/20/24
f 56/73/25 57/72/26 8/9/27 9/22/28
f 8/9/29 6/7/30 11/23/31 9/22/32
f 6/7/33 46/6/34 47/24/35 11/23/36
f 4/3/37 2/2/38 10/25/39 12/26/40
f 55/74/41 56/73/42 9/22/43 13/28/44
f 9/22/45 11/23/46 15/29/47 13/28/48
f 11/23/49 47/24/50 48/30/51 15/29/52
f 12/26/53 10/25/54 14/31/55 16/32/56
f 54/75/57 55/74/58 13/28/59 17/34/60
f 13/28/61 15/29/62 19/35/63 17/34/64
f 15/29/65 48/30/66 49/36/67 19/35/68
f 16/32/69 14/31/70 18/37/71 20/38/72
f 53/76/73 54/75/74 17/34/75 21/40/76
f 17/34/77 19/35/78 23/41/79 21/40/80
f 19/35/81 49/36/82 50/42/83 23/41/84
f 20/38/85 18/37/86 22/43/87 24/44/88
f 52/77/89 53/76/90 21/40/91 25/15/92
f 21/40/93 23/41/94 27/16/95 25/15/96
f 23/41/97 50/42/98 51/13/99 27/16/100
f 24/44/101 22/43/102 26/45/103 28/46/104
f 7/10/105 58/71/106 59/70/107 29/48/108
f 1/1/109 3/4/110 31/49/111 30/50/112
f 66/51/113 45/5/114 5/8/115 32/52/116
f 5/8/117 7/10/118 29/48/119 32/52/120
f 29/48/121 59/70/122 60/69/123 33/54/124
f 30/50/125 31/49/126 35/55/127 34/56/128
f 65/57/129 66/51/130 32/52/131 36/58/132
f 32/52/133 29/48/134 33/54/135 36/58/136
f 33/54/137 60/69/138 61/68/139 37/60/140
f 34/56/141 35/55/142 39/61/143 38/62/144
f 64/63/145 65/57/146 36/58/147 40/64/148
f 36/58/149 33/54/150 37/60/151 40/64/152
f 37/60/153 61/68/154 62/67/155 41/17/156
f 38/62/157 39/61/158 43/65/159 42/66/160
f 63/19/161 64/63/162 40/64/163 44/20/164
f 40/64/165 37/60/166 41/17/167 44/20/168
f 3/4/169 4/3/170 46/6/171 45/5/172
f 47/24/173 46/6/174 4/3/175 12/26/176
f 48/30/177 47/24/178 12/26/179 16/32/180
f 49/36/181 48/30/182 16/32/183 20/38/184
f 50/42/185 49/36/186 20/38/187 24/44/188
f 51/13/189 50/42/190 24/44/191 28/46/192
f 26/45/193 52/14/194 51/13/195 28/46/196
f 22/43/197 53/39/198 52/14/199 26/45/200
f 18/37/201 54/33/202 53/39/203 22/43/204
f 14/31/205 55/27/206 54/33/207 18/37/208
f 10/25/209 56/21/210 55/27/211 14/31/212
f 2/2/213 57/11/214 56/21/215 10/25/216
f 58/12/217 57/11/218 2/2/219 1/1/220
f 59/47/221 58/12/222 1/1/223 30/50/224
f 60/53/225 59/47/226 30/50/227 34/56/228
f 61/59/229 60/53/230 34/56/231 38/62/232
f 62/18/233 61/59/234 38/62/235 42/66/236
f 63/19/237 62/18/238 42/66/239 43/65/240
f 39/61/241 64/63/242 63/19/243 43/65/244
f 35/55/245 65/57/246 64/63/247 39/61/248
f 31/49/249 66/51/250 65/57/251 35/55/252
f 3/4/253 45/5/254 66/51/255 31/49/256
