# This file uses meters as units for non-parametric coordinates.

mtllib FrontDeco.mtl
g default
v -266.147565 1081.499878 3719.681527
v 255.310565 1081.499878 3719.681527
v -187.354108 1496.050537 3719.681527
v 176.517153 1496.050537 3719.681527
v -187.354108 1496.050537 3501.188607
v 176.517153 1496.050537 3501.188607
v -266.147565 1081.499878 3501.188607
v 255.310565 1081.499878 3501.188607
v -5.418487 1081.499878 3719.681527
v -5.418487 1081.499878 3501.188607
v -5.418488 1496.050537 3501.188607
v -5.418488 1496.050537 3719.681527
v 10.489577 1081.499878 3719.681527
v 5.682091 1496.050537 3719.681527
v 12.775075 1496.050537 3501.188607
v 20.654421 1081.499878 3501.188607
v -21.326558 1081.499878 3719.681527
v -31.491401 1081.499878 3501.188607
v -23.612054 1496.050537 3501.188607
v -16.519073 1496.050537 3719.681527
v -5.418487 1496.050537 3732.301400
v -5.418487 1081.499878 3732.301400
v 10.489577 1081.499878 3732.301400
v 3.570017 1496.050537 3732.301400
v -14.406995 1496.050537 3732.301400
v -21.326558 1081.499878 3732.301400
v -379.897657 5.262088 3762.926400
v -394.275342 7.838859 3762.926400
v -357.979810 280.077118 3762.926400
v -372.357648 282.653931 3762.926400
v -357.979810 280.077118 3503.664193
v -372.357648 282.653931 3529.074105
v -357.979810 280.077118 3747.100472
v -372.357648 282.653931 3747.100472
v -394.275342 7.838859 3747.100472
v -223.483930 5.262076 3747.100472
v -201.566114 280.077118 3747.100472
v -223.483930 5.262076 3762.926400
v -201.566114 280.077118 3762.926400
v -394.275342 7.838859 3562.119271
v -372.357648 282.653931 3562.119271
v -357.979810 280.077118 3562.787484
v -1023.027234 7.838851 3562.119271
v -981.842115 282.653900 3562.119271
v -1023.027234 7.838851 3529.074105
v -981.842115 282.653900 3529.074105
v -985.980543 7.838857 3562.119271
v -945.517957 282.653900 3529.074105
v -945.517957 282.653900 3562.119271
v -985.980543 7.838857 1402.156381
v -945.517957 282.653900 1402.156381
v -981.842115 282.653900 1402.156381
v -1023.027234 7.838851 1402.156381
v 370.436816 5.262089 3748.849740
v 384.814501 7.838860 3748.849740
v 348.518969 280.077118 3748.849740
v 362.896838 282.653931 3748.849740
v 348.518969 280.077118 3489.587533
v 362.896838 282.653931 3514.997445
v 348.518969 280.077118 3733.023812
v 362.896838 282.653931 3733.023812
v 384.814501 7.838860 3733.023812
v 214.023120 5.262075 3733.023812
v 192.105303 280.077118 3733.023812
v 214.023120 5.262075 3748.849740
v 192.105303 280.077118 3748.849740
v 384.814501 7.838860 3541.216195
v 362.896838 282.653931 3541.216195
v 348.518969 280.077118 3541.216195
v 999.574450 7.838858 3541.216195
v 958.389331 282.653900 3541.216195
v 999.574450 7.838858 3514.997445
v 958.389331 282.653900 3514.997445
v 976.519702 7.838858 3541.216195
v 936.057177 282.653900 3514.997445
v 936.057177 282.653900 3541.216195
v 976.519702 7.838858 1388.079720
v 936.057177 282.653900 1388.079720
v 958.389331 282.653900 1388.079720
v 999.574450 7.838858 1388.079720
vt 0.283973 0.171406
vt 0.350034 0.109881
vt 0.315428 0.389215
vt 0.256276 0.313274
vt 0.037170 0.108898
vt 0.102868 0.170484
vt 0.129119 0.312626
vt 0.068918 0.387887
vt 0.200962 0.170464
vt 0.198246 0.313138
vt 0.195758 0.310950
vt 0.198810 0.172558
vt 0.187147 0.313082
vt 0.185885 0.170388
vt 0.188015 0.172503
vt 0.189658 0.310919
vt 0.117290 0.464569
vt 0.169931 0.463165
vt 0.171927 0.541497
vt 0.119283 0.542776
vt 0.114781 0.542953
vt 0.112784 0.464621
vt 0.059693 0.462902
vt 0.064195 0.462725
vt 0.066192 0.541057
vt 0.061687 0.541110
vt 0.343201 0.472703
vt 0.352587 0.472031
vt 0.359981 0.549914
vt 0.350637 0.551020
vt 0.955338 0.414588
vt 0.962774 0.492906
vt 0.118304 0.718451
vt 0.112780 0.638740
vt 0.168410 0.634822
vt 0.173942 0.714659
vt 0.108185 0.638995
vt 0.113717 0.718832
vt 0.059903 0.725707
vt 0.054379 0.645996
vt 0.058965 0.645615
vt 0.064498 0.725452
vt 0.345173 0.688838
vt 0.345173 0.608489
vt 0.352796 0.608712
vt 0.352796 0.688614
vt 0.971195 0.608489
vt 0.971195 0.688838
vt 0.192314 0.388278
vt 0.192691 0.314137
vt 0.198487 0.388310
vt 0.186140 0.388247
vt 0.192708 0.310937
vt 0.193428 0.169423
vt 0.193805 0.095282
vt 0.202653 0.095327
vt 0.184958 0.095237
vt 0.193412 0.172528
vt 0.213580 0.007362
vt 0.213580 0.069906
vt 0.208701 0.070133
vt 0.208701 0.007362
vt 0.213580 0.089968
vt 0.208701 0.081346
vt 0.213580 0.001992
vt 0.208701 0.001992
vt 0.014209 0.081346
vt 0.014209 0.070133
vt 0.266657 0.001992
vt 0.266657 0.007362
vt 0.001883 0.081346
vt 0.001883 0.070133
vt 0.014209 0.803081
vt 0.001883 0.803081
vt 0.325924 0.007362
vt 0.330802 0.007362
vt 0.330802 0.072449
vt 0.325924 0.072449
vt 0.325924 0.001992
vt 0.330802 0.001992
vt 0.330802 0.081346
vt 0.325924 0.089968
vt 0.272847 0.007362
vt 0.272847 0.001992
vt 0.525295 0.072449
vt 0.020339 0.083949
vt 0.532873 0.072449
vt 0.532873 0.081346
vt 0.027917 0.805683
vt 0.020339 0.805683
vt 0.440832 0.220203
vt 0.387893 0.350532
vt 0.382173 0.348209
vt 0.432635 0.216873
vt 0.449029 0.223532
vt 0.393613 0.352856
vt 0.445091 0.373766
vt 0.522802 0.253499
vt 0.110656 0.543527
vt 0.108656 0.465071
vt 0.332855 0.471926
vt 0.340127 0.550668
vt 0.975260 0.490027
vt 0.967583 0.411324
vt 0.103935 0.638810
vt 0.109477 0.718775
vt 0.338751 0.690023
vt 0.338543 0.609260
vt 0.977824 0.609260
vt 0.977616 0.690023
vt 0.525295 0.081346
vt 0.027917 0.083949
vn 0.000000 0.000000 1.000000
vn 0.000000 0.000000 1.000000
vn 0.000000 0.000000 1.000000
vn 0.000000 0.000000 1.000000
vn 0.000000 1.000000 0.000000
vn 0.000000 1.000000 0.000000
vn 0.000000 1.000000 -0.000000
vn 0.000000 1.000000 -0.000000
vn 0.000000 0.000000 -1.000000
vn 0.000000 0.000000 -1.000000
vn 0.000000 0.000000 -1.000000
vn 0.000000 0.000000 -1.000000
vn 0.000000 -1.000000 -0.000000
vn 0.000000 -1.000000 -0.000000
vn 0.000000 -1.000000 -0.000000
vn 0.000000 -1.000000 -0.000000
vn 0.982412 0.186727 0.000000
vn 0.982412 0.186727 0.000000
vn 0.982412 0.186727 0.000000
vn 0.982412 0.186727 0.000000
vn -0.982412 0.186727 0.000000
vn -0.982412 0.186727 0.000000
vn -0.982412 0.186727 0.000000
vn -0.982412 0.186727 0.000000
vn 0.000000 -1.000000 0.000001
vn 0.000000 -1.000000 0.000001
vn 0.000000 0.000000 -1.000000
vn 0.000000 0.000000 -1.000000
vn 0.000000 1.000000 -0.000000
vn 0.000000 1.000000 -0.000000
vn 0.000000 0.000000 1.000000
vn 0.000000 0.000000 1.000000
vn 0.000000 0.000000 1.000000
vn 0.000000 0.000000 1.000000
vn 0.000000 0.000000 1.000000
vn 0.000000 0.000000 1.000000
vn 0.000000 1.000000 -0.000000
vn 0.000000 1.000000 -0.000000
vn 0.000000 0.000000 -1.000000
vn 0.000000 0.000000 -1.000000
vn 0.000000 -1.000000 0.000000
vn 0.000000 -1.000000 0.000000
vn 0.000000 -1.000000 0.000001
vn 0.000000 -1.000000 0.000001
vn 0.000000 0.000000 -1.000000
vn 0.000000 0.000000 -1.000000
vn 0.000000 1.000000 -0.000000
vn 0.000000 1.000000 -0.000000
vn 0.000000 0.000000 1.000000
vn 0.000000 0.000000 1.000000
vn 0.000000 0.000000 1.000000
vn 0.000000 0.000000 1.000000
vn 0.000000 -1.000000 0.000000
vn 0.000000 -1.000000 0.000000
vn 0.000000 -1.000000 0.000000
vn 0.000000 -1.000000 0.000000
vn 0.996418 0.014093 0.083380
vn 0.996418 0.014093 0.083380
vn 0.996418 0.014093 0.083380
vn 0.996418 0.014093 0.083380
vn 0.000000 1.000000 -0.000006
vn 0.000000 1.000000 -0.000006
vn 0.000000 1.000000 -0.000006
vn 0.000000 1.000000 -0.000006
vn -0.996418 0.014093 0.083380
vn -0.996418 0.014093 0.083380
vn -0.996418 0.014093 0.083380
vn -0.996418 0.014093 0.083380
vn 0.000000 -1.000000 0.000000
vn 0.000000 -1.000000 0.000000
vn 0.000000 -1.000000 0.000000
vn 0.000000 -1.000000 0.000000
vn 0.000000 1.000000 -0.000006
vn 0.000000 1.000000 -0.000006
vn 0.000000 1.000000 -0.000006
vn 0.000000 1.000000 -0.000006
vn -0.000010 0.000000 1.000000
vn -0.000010 0.000000 1.000000
vn -0.000010 0.000000 1.000000
vn -0.000010 0.000000 1.000000
vn 0.176411 0.984317 0.000000
vn 0.176411 0.984317 0.000000
vn 0.176411 0.984317 0.000000
vn 0.176411 0.984317 0.000000
vn -0.996835 0.079502 0.000000
vn -0.996835 0.079502 0.000000
vn -0.996835 0.079502 0.000000
vn -0.996835 0.079502 0.000000
vn 0.176410 0.984317 0.000000
vn 0.176410 0.984317 0.000000
vn -0.996835 0.079501 0.000000
vn -0.996835 0.079501 0.000000
vn 0.996835 -0.079503 0.000000
vn 0.996835 -0.079503 0.000000
vn 0.996835 -0.079503 0.000000
vn 0.996835 -0.079503 0.000000
vn 0.000001 0.000000 1.000000
vn 0.000001 0.000000 1.000000
vn 0.000001 0.000000 1.000000
vn 0.000001 0.000000 1.000000
vn 0.000000 1.000000 0.000000
vn 0.000000 1.000000 0.000000
vn 0.000000 1.000000 0.000000
vn 0.000000 1.000000 0.000000
vn -0.988956 0.148211 0.000000
vn -0.988956 0.148211 0.000000
vn -0.988956 0.148211 0.000000
vn -0.988956 0.148211 0.000000
vn 0.176411 0.984317 0.000000
vn 0.176411 0.984317 0.000000
vn 0.000001 0.000000 1.000000
vn 0.000006 0.000000 1.000000
vn 0.000006 0.000000 1.000000
vn 0.000001 0.000000 1.000000
vn -0.000003 0.000000 -1.000000
vn -0.000003 0.000000 -1.000000
vn -0.000003 0.000000 -1.000000
vn -0.000003 0.000000 -1.000000
vn -0.000000 1.000000 0.000000
vn 0.000000 1.000000 0.000000
vn 0.000000 1.000000 0.000000
vn -0.000000 1.000000 0.000000
vn -0.000000 1.000000 0.000000
vn -0.000000 1.000000 0.000000
vn 0.000000 0.000000 1.000000
vn 0.000000 0.000000 1.000000
vn 0.000000 1.000000 0.000000
vn 0.000000 1.000000 0.000000
vn 0.000000 1.000000 0.000000
vn 0.000000 1.000000 0.000000
vn -0.988956 0.148210 0.000000
vn -0.988956 0.148210 0.000000
vn -0.988956 0.148210 0.000000
vn -0.988956 0.148210 0.000000
vn 0.000016 0.000000 1.000000
vn 0.000016 0.000000 1.000000
vn 0.000016 0.000000 1.000000
vn 0.000016 0.000000 1.000000
vn -0.176410 0.984317 0.000000
vn -0.176410 0.984317 0.000000
vn -0.176410 0.984317 0.000000
vn -0.176410 0.984317 0.000000
vn 0.996835 0.079502 0.000000
vn 0.996835 0.079502 0.000000
vn 0.996835 0.079502 0.000000
vn 0.996835 0.079502 0.000000
vn -0.176409 0.984317 0.000000
vn -0.176409 0.984317 0.000000
vn 0.996835 0.079502 0.000000
vn 0.996835 0.079502 0.000000
vn -0.996835 -0.079503 0.000000
vn -0.996835 -0.079503 0.000000
vn -0.996835 -0.079503 0.000000
vn -0.996835 -0.079503 0.000000
vn -0.000001 0.000000 1.000000
vn -0.000001 0.000000 1.000000
vn -0.000001 0.000000 1.000000
vn -0.000001 0.000000 1.000000
vn 0.000000 1.000000 0.000000
vn 0.000000 1.000000 0.000000
vn 0.000000 1.000000 0.000000
vn 0.000000 1.000000 0.000000
vn 0.988956 0.148210 0.000000
vn 0.988956 0.148210 0.000000
vn 0.988956 0.148210 0.000000
vn 0.988956 0.148210 0.000000
vn -0.176409 0.984317 0.000000
vn -0.176409 0.984317 0.000000
vn 0.000000 0.000000 1.000000
vn 0.000000 0.000000 1.000000
vn 0.000000 0.000000 1.000000
vn 0.000000 0.000000 1.000000
vn 0.000000 0.000000 -1.000000
vn 0.000000 0.000000 -1.000000
vn 0.000000 0.000000 -1.000000
vn 0.000000 0.000000 -1.000000
vn 0.000000 1.000000 0.000000
vn 0.000000 1.000000 0.000000
vn 0.000000 1.000000 0.000000
vn 0.000000 1.000000 0.000000
vn 0.000000 1.000000 0.000000
vn 0.000000 1.000000 0.000000
vn 0.000000 0.000000 1.000000
vn 0.000000 0.000000 1.000000
vn 0.000000 1.000000 0.000000
vn 0.000000 1.000000 0.000000
vn 0.000000 1.000000 0.000000
vn 0.000000 1.000000 0.000000
vn 0.988956 0.148210 0.000000
vn 0.988956 0.148210 0.000000
vn 0.988956 0.148210 0.000000
vn 0.988956 0.148210 0.000000
s 1
g FrontDeco
usemtl initialShadingGroup
f 21/53/1 22/58/2 23/12/3 24/11/4
s 2
f 11/49/5 12/50/6 14/10/7 15/51/8
s 3
f 10/91/9 11/92/10 15/93/11 16/94/12
s 4
f 9/54/13 10/55/14 16/56/15 13/9/16
s off
f 2/1/17 8/2/18 6/3/19 4/4/20
f 7/5/21 1/6/22 3/7/23 5/8/24
s 4
f 17/14/25 18/57/26 10/55/14 9/54/13
s 3
f 18/95/27 19/96/28 11/92/10 10/91/9
s 2
f 19/52/29 20/13/30 12/50/6 11/49/5
s 1
f 25/16/31 26/15/32 22/58/2 21/53/1
s off
f 14/10/33 13/9/34 2/1/35 4/4/36
s 2
f 15/51/8 14/10/7 4/4/37 6/3/38
s 3
f 16/94/12 15/93/11 6/3/39 8/2/40
s 4
f 13/9/16 16/56/15 8/2/41 2/1/42
f 7/5/43 18/57/26 17/14/25 1/6/44
s 3
f 5/97/45 19/96/28 18/95/27 7/98/46
s 2
f 3/7/47 20/13/30 19/52/29 5/8/48
s off
f 1/6/49 17/14/50 20/13/51 3/7/52
f 9/54/53 13/9/54 23/12/55 22/58/56
f 13/9/57 14/10/58 24/11/59 23/12/60
f 14/10/61 12/50/62 21/53/63 24/11/64
f 20/13/65 17/14/66 26/15/67 25/16/68
f 17/14/69 9/54/70 22/58/71 26/15/72
f 12/50/73 20/13/74 25/16/75 21/53/76
f 27/99/77 29/100/78 30/22/79 28/21/80
s 5
f 33/59/81 42/60/82 41/61/83 34/62/84
s 6
f 34/17/85 41/18/86 40/19/87 35/20/88
s 5
f 29/65/89 33/59/81 34/62/84 30/66/90
s 6
f 28/21/91 30/22/92 34/17/85 35/20/88
s off
f 37/23/93 39/24/94 38/25/95 36/26/96
f 27/99/97 38/25/98 39/24/99 29/100/100
f 29/65/101 39/69/102 37/70/103 33/59/104
f 44/27/105 46/28/106 45/29/107 43/30/108
s 5
f 42/60/82 31/63/109 32/64/110 41/61/83
s 7
f 49/101/111 44/27/112 43/30/113 47/102/114
s off
f 50/103/115 53/32/116 52/31/117 51/104/118
s 8
f 48/67/119 46/71/120 44/72/121 49/68/122
f 32/64/123 48/67/119 49/68/122 41/61/124
s 7
f 41/18/125 49/101/111 47/102/114 40/19/126
s off
f 48/67/127 51/73/128 52/74/129 46/71/130
f 46/28/131 52/31/132 53/32/133 45/29/134
f 54/105/135 55/37/136 57/38/137 56/106/138
s 9
f 60/75/139 61/76/140 68/77/141 69/78/142
s 10
f 61/33/143 62/34/144 67/35/145 68/36/146
s 9
f 56/79/147 57/80/148 61/76/140 60/75/139
s 10
f 55/37/149 62/34/144 61/33/143 57/38/150
s off
f 64/39/151 63/40/152 65/41/153 66/42/154
f 54/105/155 56/106/156 66/42/157 65/41/158
f 56/79/159 60/75/160 64/83/161 66/84/162
f 71/43/163 70/44/164 72/45/165 73/46/166
s 9
f 69/78/142 68/77/141 59/81/167 58/82/168
s 11
f 76/107/169 74/108/170 70/44/171 71/43/172
s off
f 77/109/173 78/110/174 79/48/175 80/47/176
s 12
f 75/111/177 76/85/178 71/87/179 73/88/180
f 59/81/181 68/77/182 76/85/178 75/111/177
s 11
f 68/36/183 67/35/184 74/108/170 76/107/169
s off
f 75/86/185 73/112/186 79/89/187 78/90/188
f 73/46/189 72/45/190 80/47/191 79/48/192
