# This file uses centimeters as units for non-parametric coordinates.

mtllib Kelp.mtl
g default
v -1.265094 -0.444085 0.901980
v 1.250287 -0.444085 -1.043947
v -1.265094 23.560608 0.901980
v 1.250287 23.560608 -1.043947
v -1.265094 11.558262 0.901980
v 1.250287 11.558262 -1.043947
v -1.265094 5.557088 0.901980
v 1.250287 5.557088 -1.043947
v -1.265094 17.559435 0.901980
v 1.250287 17.559435 -1.043947
v -0.749774 -0.444085 -1.049723
v 1.304024 -0.444085 1.004076
v -0.749774 23.560608 -1.049723
v 1.304024 23.560608 1.004076
v -0.749774 11.558262 -1.049723
v 1.304024 11.558262 1.004076
v -0.749774 5.557088 -1.049723
v 1.304024 5.557088 1.004076
v -0.749774 17.559435 -1.049723
v 1.304024 17.559435 1.004076
v -1.417892 -0.444085 -0.022823
v 1.486618 -0.444085 -0.022823
v -1.417892 23.560608 -0.022823
v 1.486618 23.560608 -0.022823
v -1.417892 11.558262 -0.022823
v 1.486618 11.558262 -0.022823
v -1.417892 5.557088 -0.022823
v 1.486618 5.557088 -0.022823
v -1.417892 17.559435 -0.022823
v 1.486618 17.559435 -0.022823
vt 0.007056 0.551371
vt 0.152880 0.551371
vt 0.152880 0.988275
vt 0.007056 0.988275
vt 0.164947 0.551435
vt 0.310771 0.551435
vt 0.310771 0.988339
vt 0.007056 0.114467
vt 0.164947 0.114531
vt 0.310771 0.114531
vt 0.164947 0.988339
vt 0.152880 0.114467
vt 0.327017 0.549391
vt 0.472840 0.549391
vt 0.472840 0.986295
vt 0.327017 0.986295
vt 0.487137 0.550283
vt 0.632961 0.550283
vt 0.632961 0.987187
vt 0.487137 0.987187
vt 0.487137 0.113378
vt 0.632961 0.113378
vt 0.327016 0.112487
vt 0.472840 0.112487
vt 0.645415 0.548767
vt 0.791239 0.548767
vt 0.791239 0.985671
vt 0.645415 0.985671
vt 0.803975 0.546073
vt 0.949799 0.546073
vt 0.949799 0.982977
vt 0.803975 0.982977
vt 0.803975 0.109169
vt 0.949799 0.109169
vt 0.645415 0.111863
vt 0.791239 0.111863
vn 0.611885 0.000000 0.790947
vn 0.611885 0.000000 0.790947
vn 0.611885 0.000000 0.790947
vn 0.611885 0.000000 0.790947
vn 0.611885 0.000000 0.790947
vn 0.611885 0.000000 0.790947
vn 0.611885 0.000000 0.790947
vn 0.611885 0.000000 0.790947
vn 0.611885 0.000000 0.790947
vn 0.611885 0.000000 0.790947
vn -0.707107 0.000000 0.707107
vn -0.707107 0.000000 0.707107
vn -0.707107 0.000000 0.707107
vn -0.707107 0.000000 0.707107
vn -0.707107 0.000000 0.707107
vn -0.707107 0.000000 0.707107
vn -0.707107 0.000000 0.707107
vn -0.707107 0.000000 0.707107
vn -0.707107 0.000000 0.707107
vn -0.707107 0.000000 0.707107
vn 0.000000 0.000000 1.000000
vn 0.000000 0.000000 1.000000
vn 0.000000 0.000000 1.000000
vn 0.000000 0.000000 1.000000
vn 0.000000 0.000000 1.000000
vn 0.000000 0.000000 1.000000
vn 0.000000 0.000000 1.000000
vn 0.000000 0.000000 1.000000
vn 0.000000 0.000000 1.000000
vn 0.000000 0.000000 1.000000
s 1
g Kelp
usemtl initialShadingGroup
f 9/1/1 10/2/2 4/3/3 3/4/4
f 7/5/5 8/6/6 6/7/7 5/11/8
f 1/9/9 2/10/10 8/6/6 7/5/5
f 5/8/8 6/12/7 10/2/2 9/1/1
s 3
f 19/13/11 20/14/12 14/15/13 13/16/14
f 17/17/15 18/18/16 16/19/17 15/20/18
f 11/21/19 12/22/20 18/18/16 17/17/15
f 15/23/18 16/24/17 20/14/12 19/13/11
s 5
f 29/25/21 30/26/22 24/27/23 23/28/24
f 27/29/25 28/30/26 26/31/27 25/32/28
f 21/33/29 22/34/30 28/30/26 27/29/25
f 25/35/28 26/36/27 30/26/22 29/25/21
