# This file uses meters as units for non-parametric coordinates.

mtllib Plane.mtl
g default
v -41258.628906 199.167542 41258.628906
v 41258.628906 199.167542 41258.628906
v -41258.628906 199.167542 -41258.628906
v 41258.628906 199.167542 -41258.628906
vt 0.000000 0.000000
vt 1.000000 0.000000
vt 1.000000 1.000000
vt 0.000000 1.000000
vn 0.000000 1.000000 0.000000
vn 0.000000 1.000000 0.000000
vn 0.000000 1.000000 0.000000
vn 0.000000 1.000000 0.000000
s off
g Plane
usemtl lambert20SG
f 1/1/1 2/2/2 4/3/3 3/4/4
