# This file uses meters as units for non-parametric coordinates.

mtllib Terrain_Plane.mtl
g default
v -23509.427734 243.039291 23547.326172
v 23664.830078 243.039291 23547.326172
v -23509.427734 243.039291 -23626.931641
v 23664.830078 243.039291 -23626.931641
vt 0.000000 0.000000
vt 1.000000 0.000000
vt 0.000000 1.000000
vt 1.000000 1.000000
vn 0.000000 1.000000 0.000000
vn 0.000000 1.000000 0.000000
vn 0.000000 1.000000 0.000000
vn 0.000000 1.000000 0.000000
s off
g pPlane2
usemtl initialShadingGroup
f 1/1/1 2/2/2 4/4/3 3/3/4
