# This file uses centimeters as units for non-parametric coordinates.

mtllib Seagrass.mtl
g default
v -0.470068 -0.279729 0.727388
v 0.944146 -0.279729 -0.686825
v -0.470068 2.720272 0.727388
v 0.944146 2.720272 -0.686826
v -0.874686 -0.098988 0.061048
v 1.125314 -0.098988 0.061048
v -0.874686 2.901011 0.061048
v 1.125314 2.901011 0.061048
v 0.126739 -0.345028 0.493024
v 1.261515 -0.345028 -0.162138
v 0.126740 1.620457 0.493026
v 1.261516 1.620457 -0.162136
vt 0.017446 0.576298
vt 0.017446 0.205765
vt 0.573245 0.205765
vt 0.573245 0.576298
vt 0.607926 0.291287
vt 0.974620 0.291287
vt 0.974620 0.841329
vt 0.607926 0.841329
vt 0.019346 0.979087
vt 0.019346 0.603859
vt 0.582187 0.603859
vt 0.582187 0.979087
vn 0.707107 0.000000 0.707107
vn 0.707107 0.000000 0.707107
vn 0.707107 0.000000 0.707107
vn 0.707107 0.000000 0.707107
vn 0.000000 0.000000 1.000000
vn 0.000000 0.000000 1.000000
vn 0.000000 0.000000 1.000000
vn 0.000000 0.000000 1.000000
vn 0.499999 -0.000001 0.866026
vn 0.499999 -0.000001 0.866026
vn 0.499999 -0.000001 0.866026
vn 0.499999 -0.000001 0.866026
s off
g Seagrass
usemtl initialShadingGroup
f 1/1/1 2/2/2 4/3/3 3/4/4
f 5/5/5 6/6/6 8/7/7 7/8/8
f 9/9/9 10/10/10 12/11/11 11/12/12
