# This file uses meters as units for non-parametric coordinates.

mtllib SupportBars.mtl
g default
v -1349.280884 629.485474 760.987915
v -1349.280884 629.485474 -1547.835571
v -1349.280884 702.838623 760.987915
v -1349.280884 702.838623 -1547.835571
v -1460.627563 702.838623 760.987915
v -1460.627563 702.838623 -1547.835571
v -1460.627563 629.485474 760.987915
v -1460.627563 629.485474 -1547.835571
v -669.017700 609.614197 853.091919
v -669.017700 609.614197 -522.985596
v -669.017700 682.967346 853.091919
v -669.017700 682.967346 -522.985596
v -806.778564 682.967346 853.091919
v -806.778564 682.967346 -522.985596
v -806.778564 609.614197 853.091919
v -806.778564 609.614197 -522.985596
v -799.378784 609.614197 -447.106262
v 723.939148 609.614197 -447.106262
v -799.378784 682.967346 -447.106262
v 723.939148 682.967346 -447.106262
v -799.378784 682.967346 -612.595276
v 723.939148 682.967346 -612.595276
v -799.378784 609.614197 -612.595276
v 723.939148 609.614197 -612.595276
v 780.848694 609.614197 850.984741
v 780.848694 609.614197 -512.031616
v 780.848694 682.967346 850.984741
v 780.848694 682.967346 -512.031616
v 643.087830 682.967346 850.984741
v 643.087830 682.967346 -512.031616
v 643.087830 609.614197 850.984741
v 643.087830 609.614197 -512.031616
v 1364.952881 613.786011 1375.919678
v 1368.941040 613.786011 -1128.903564
v 1364.952881 687.139160 1375.919678
v 1368.941040 687.139160 -1128.903564
v 1311.825195 687.139160 1375.919678
v 1307.628906 687.139160 -1128.903564
v 1311.825195 613.786011 1375.919678
v 1307.628906 613.786011 -1128.903564
v 1441.971069 609.321350 771.709106
v 1442.617920 609.321350 -577.080078
v 1441.971069 682.674500 771.709106
v 1442.617920 682.674500 -577.080078
v 1390.074341 682.674500 771.709106
v 1382.536865 682.674500 -577.080078
v 1390.074341 609.321350 771.709106
v 1382.536865 609.321350 -577.080078
v 1318.235840 547.964478 -1188.357544
v 798.867859 547.964478 -1188.357544
v 1318.235840 621.317627 -1188.357544
v 798.867859 621.317627 -1188.357544
v 1318.235840 621.317627 -1119.420410
v 798.867859 621.317627 -1119.420410
v 1318.235840 547.964478 -1119.420410
v 798.867859 547.964478 -1119.420410
v -723.342529 733.970276 -541.392944
v -723.342529 733.970276 -1909.892944
v -723.342529 807.323425 -541.392944
v -723.342529 807.323425 -1909.892944
v -810.922119 807.323425 -541.392944
v -810.922119 807.323425 -1909.892944
v -810.922119 733.970276 -541.392944
v -810.922119 733.970276 -1909.892944
v -817.225586 733.970276 -1856.312134
v 810.872131 733.970276 -1856.312134
v -817.225586 807.323425 -1856.312134
v 810.872131 807.323425 -1856.312134
v -817.225586 807.323425 -1967.658813
v 810.872131 807.323425 -1967.658813
v -817.225586 733.970276 -1967.658813
v 810.872131 733.970276 -1967.658813
v 802.910400 733.970276 -516.140442
v 802.910400 733.970276 -1920.209473
v 802.910034 807.323425 -516.140442
v 802.910034 807.323425 -1920.209473
v 726.762573 807.323425 -516.140442
v 726.762573 807.323425 -1920.209473
v 726.762939 733.970276 -516.140442
v 726.762939 733.970276 -1920.209473
v -1386.230347 547.964478 -1050.627563
v -807.161987 547.964478 -1050.627563
v -1386.230347 621.317627 -1050.627563
v -807.161987 621.317627 -1050.627563
v -1386.230347 621.317627 -1189.077271
v -807.161987 621.317627 -1189.077271
v -1386.230347 547.964478 -1189.077271
v -807.161987 547.964478 -1189.077271
vt 0.217388 0.001992
vt 0.217388 0.799588
vt 0.192048 0.799588
vt 0.192048 0.001992
vt 0.153583 0.001992
vt 0.153583 0.799588
vt 0.128243 0.799588
vt 0.128243 0.001992
vt 0.795589 0.486245
vt 0.795589 0.010871
vt 0.820929 0.010871
vt 0.820929 0.486245
vt 0.868520 0.486245
vt 0.868520 0.010871
vt 0.893860 0.010871
vt 0.893860 0.486245
vt 0.251921 0.860588
vt 0.251921 0.803418
vt 0.277261 0.803418
vt 0.277261 0.860588
vt 0.220693 0.860588
vt 0.220693 0.803419
vt 0.246033 0.803419
vt 0.246033 0.860588
vt 0.776658 0.990461
vt 0.776658 0.519599
vt 0.802428 0.519599
vt 0.802428 0.990461
vt 0.836346 0.990461
vt 0.836346 0.519599
vt 0.859442 0.519599
vt 0.754616 0.990461
vt 0.001912 0.867298
vt 0.001912 0.001992
vt 0.027252 0.001992
vt 0.027252 0.867298
vt 0.045605 0.867327
vt 0.048432 0.002026
vt 0.073773 0.002108
vt 0.070945 0.867410
vt 0.679732 0.991743
vt 0.679732 0.525796
vt 0.705073 0.525796
vt 0.705072 0.991743
vt 0.723000 0.991750
vt 0.725828 0.525808
vt 0.751168 0.525963
vt 0.748340 0.991902
vt 0.329380 0.751507
vt 0.353194 0.751507
vt 0.353194 0.776847
vt 0.329380 0.776847
vt 0.359302 0.751507
vt 0.383117 0.751507
vt 0.383117 0.776847
vt 0.359302 0.776847
vt 0.901106 0.522281
vt 0.901107 0.995037
vt 0.875766 0.995038
vt 0.875766 0.522281
vt 0.956702 0.522281
vt 0.956702 0.995037
vt 0.931361 0.995037
vt 0.931361 0.522281
vt 0.002100 0.909593
vt 0.002100 0.871128
vt 0.027440 0.871128
vt 0.027440 0.909593
vt 0.001912 0.951889
vt 0.001912 0.913423
vt 0.027252 0.913423
vt 0.027252 0.951889
vt 0.714206 0.497614
vt 0.714206 0.012571
vt 0.739546 0.012571
vt 0.739546 0.497614
vt 0.662560 0.497614
vt 0.662560 0.012571
vt 0.687900 0.012571
vt 0.687900 0.497614
vt 0.189465 0.851247
vt 0.189465 0.803419
vt 0.214806 0.803419
vt 0.214806 0.851247
vt 0.158238 0.851247
vt 0.158238 0.803419
vt 0.183578 0.803419
vt 0.183578 0.851247
vt 0.255854 0.001992
vt 0.255854 0.799588
vt 0.941450 0.010871
vt 0.941450 0.486245
vt 0.483439 0.499556
vt 0.483439 0.001166
vt 0.540608 0.001166
vt 0.540608 0.499556
vt 0.565948 0.499556
vt 0.565948 0.001166
vt 0.623117 0.001166
vt 0.623117 0.499556
vt 0.094953 0.002213
vt 0.089298 0.867501
vt 0.661804 0.991751
vt 0.658977 0.525806
vt 0.373780 0.568258
vt 0.373780 0.747676
vt 0.349965 0.747676
vt 0.349965 0.568258
vt 0.324625 0.568258
vt 0.324625 0.747676
vt 0.300810 0.747676
vt 0.300810 0.568258
vt 0.986956 0.522281
vt 0.986957 0.995038
vt 0.306937 0.564428
vt 0.306937 0.001992
vt 0.345403 0.001992
vt 0.345403 0.564428
vt 0.370743 0.564428
vt 0.370743 0.001992
vt 0.409208 0.001992
vt 0.409208 0.564428
vt 0.765852 0.012571
vt 0.765852 0.497614
vt 0.489951 0.732104
vt 0.489951 0.532061
vt 0.537779 0.532061
vt 0.537779 0.732104
vt 0.563119 0.732104
vt 0.563119 0.532061
vt 0.610947 0.532061
vt 0.610947 0.732103
vt 0.059232 0.922548
vt 0.059232 0.961013
vt 0.033892 0.961013
vt 0.033892 0.922548
vt 0.065685 0.961013
vt 0.065685 0.922548
vt 0.091025 0.922548
vt 0.091025 0.961013
vt 0.152351 0.803418
vt 0.152351 0.851009
vt 0.127010 0.851009
vt 0.127010 0.803418
vt 0.095783 0.918718
vt 0.095783 0.871128
vt 0.121123 0.871128
vt 0.121123 0.918718
vt 0.458098 0.499556
vt 0.458098 0.001166
vt 0.089895 0.871128
vt 0.089895 0.918718
vt 0.064555 0.918718
vt 0.064555 0.871128
vt 0.033328 0.918718
vt 0.033328 0.871128
vt 0.058668 0.871128
vt 0.058668 0.918718
vt 0.245830 0.889758
vt 0.224650 0.889758
vt 0.224650 0.864418
vt 0.245830 0.864418
vt 0.252702 0.864418
vt 0.271056 0.864418
vt 0.271056 0.889758
vt 0.252702 0.889758
vt 0.297770 0.889758
vt 0.277015 0.889758
vt 0.277015 0.864418
vt 0.297770 0.864418
vt 0.305067 0.751507
vt 0.322995 0.751507
vt 0.322995 0.776847
vt 0.305067 0.776847
vt 0.399120 0.568258
vt 0.399120 0.747676
vt 0.122818 0.922548
vt 0.122818 0.952803
vt 0.097478 0.952803
vt 0.097478 0.922548
vt 0.129271 0.885332
vt 0.129271 0.855077
vt 0.154611 0.855077
vt 0.154611 0.885332
vt 0.434549 0.001992
vt 0.434549 0.564428
vt 0.186404 0.855077
vt 0.186404 0.881382
vt 0.161064 0.881383
vt 0.161064 0.855077
vt 0.192857 0.890723
vt 0.192857 0.864418
vt 0.218197 0.864418
vt 0.218197 0.890723
vt 0.636288 0.532061
vt 0.636287 0.732104
vt 0.754616 0.519599
vt 0.859443 0.990461
vn 1.000000 0.000000 0.000000
vn 1.000000 0.000000 0.000000
vn 1.000000 0.000000 0.000000
vn 1.000000 0.000000 0.000000
vn 0.000000 1.000000 0.000000
vn 0.000000 1.000000 0.000000
vn 0.000000 1.000000 0.000000
vn 0.000000 1.000000 0.000000
vn -1.000000 0.000000 0.000000
vn -1.000000 0.000000 0.000000
vn -1.000000 0.000000 0.000000
vn -1.000000 0.000000 0.000000
vn 0.000000 -1.000000 0.000000
vn 0.000000 -1.000000 0.000000
vn 0.000000 -1.000000 0.000000
vn 0.000000 -1.000000 0.000000
vn 0.000000 0.000000 -1.000000
vn 0.000000 0.000000 -1.000000
vn 0.000000 0.000000 -1.000000
vn 0.000000 0.000000 -1.000000
vn 0.000000 0.000000 1.000000
vn 0.000000 0.000000 1.000000
vn 0.000000 0.000000 1.000000
vn 0.000000 0.000000 1.000000
vn 1.000000 0.000000 0.000000
vn 1.000000 0.000000 0.000000
vn 1.000000 0.000000 0.000000
vn 1.000000 0.000000 0.000000
vn 0.000000 1.000000 0.000000
vn 0.000000 1.000000 0.000000
vn 0.000000 1.000000 0.000000
vn 0.000000 1.000000 0.000000
vn -1.000000 0.000000 0.000000
vn -1.000000 0.000000 0.000000
vn -1.000000 0.000000 0.000000
vn -1.000000 0.000000 0.000000
vn 0.000000 -1.000000 0.000000
vn 0.000000 -1.000000 0.000000
vn 0.000000 -1.000000 0.000000
vn 0.000000 -1.000000 0.000000
vn 0.000000 0.000000 -1.000000
vn 0.000000 0.000000 -1.000000
vn 0.000000 0.000000 -1.000000
vn 0.000000 0.000000 -1.000000
vn 0.000000 0.000000 1.000000
vn 0.000000 0.000000 1.000000
vn 0.000000 0.000000 1.000000
vn 0.000000 0.000000 1.000000
vn 0.000000 0.000000 1.000000
vn 0.000000 0.000000 1.000000
vn 0.000000 0.000000 1.000000
vn 0.000000 0.000000 1.000000
vn 0.000000 1.000000 0.000000
vn 0.000000 1.000000 0.000000
vn 0.000000 1.000000 0.000000
vn 0.000000 1.000000 0.000000
vn 0.000000 0.000000 -1.000000
vn 0.000000 0.000000 -1.000000
vn 0.000000 0.000000 -1.000000
vn 0.000000 0.000000 -1.000000
vn 0.000000 -1.000000 0.000000
vn 0.000000 -1.000000 0.000000
vn 0.000000 -1.000000 0.000000
vn 0.000000 -1.000000 0.000000
vn 1.000000 0.000000 0.000000
vn 1.000000 0.000000 0.000000
vn 1.000000 0.000000 0.000000
vn 1.000000 0.000000 0.000000
vn -1.000000 0.000000 0.000000
vn -1.000000 0.000000 0.000000
vn -1.000000 0.000000 0.000000
vn -1.000000 0.000000 0.000000
vn 1.000000 0.000000 0.000000
vn 1.000000 0.000000 0.000000
vn 1.000000 0.000000 0.000000
vn 1.000000 0.000000 0.000000
vn 0.000000 1.000000 0.000000
vn 0.000000 1.000000 0.000000
vn 0.000000 1.000000 0.000000
vn 0.000000 1.000000 0.000000
vn -1.000000 0.000000 0.000000
vn -1.000000 0.000000 0.000000
vn -1.000000 0.000000 0.000000
vn -1.000000 0.000000 0.000000
vn 0.000000 -1.000000 0.000000
vn 0.000000 -1.000000 0.000000
vn 0.000000 -1.000000 0.000000
vn 0.000000 -1.000000 0.000000
vn 0.000000 0.000000 -1.000000
vn 0.000000 0.000000 -1.000000
vn 0.000000 0.000000 -1.000000
vn 0.000000 0.000000 -1.000000
vn 0.000000 0.000000 1.000000
vn 0.000000 0.000000 1.000000
vn 0.000000 0.000000 1.000000
vn 0.000000 0.000000 1.000000
vn 0.999999 0.000000 0.001592
vn 0.999999 0.000000 0.001592
vn 0.999999 0.000000 0.001592
vn 0.999999 0.000000 0.001592
vn 0.000000 1.000000 0.000000
vn 0.000000 1.000000 0.000000
vn 0.000000 1.000000 0.000000
vn 0.000000 1.000000 0.000000
vn -0.999999 0.000000 0.001675
vn -0.999999 0.000000 0.001675
vn -0.999999 0.000000 0.001675
vn -0.999999 0.000000 0.001675
vn 0.000000 -1.000000 0.000000
vn 0.000000 -1.000000 0.000000
vn 0.000000 -1.000000 0.000000
vn 0.000000 -1.000000 0.000000
vn 0.000000 0.000000 -1.000000
vn 0.000000 0.000000 -1.000000
vn 0.000000 0.000000 -1.000000
vn 0.000000 0.000000 -1.000000
vn 0.000000 0.000000 1.000000
vn 0.000000 0.000000 1.000000
vn 0.000000 0.000000 1.000000
vn 0.000000 0.000000 1.000000
vn 1.000000 0.000000 0.000480
vn 1.000000 0.000000 0.000480
vn 1.000000 0.000000 0.000480
vn 1.000000 0.000000 0.000480
vn 0.000000 1.000000 -0.000000
vn 0.000000 1.000000 -0.000000
vn 0.000000 1.000000 -0.000000
vn 0.000000 1.000000 -0.000000
vn -0.999984 0.000000 0.005588
vn -0.999984 0.000000 0.005588
vn -0.999984 0.000000 0.005588
vn -0.999984 0.000000 0.005588
vn 0.000000 -1.000000 0.000000
vn 0.000000 -1.000000 0.000000
vn 0.000000 -1.000000 0.000000
vn 0.000000 -1.000000 0.000000
vn 0.000000 0.000000 -1.000000
vn 0.000000 0.000000 -1.000000
vn 0.000000 0.000000 -1.000000
vn 0.000000 0.000000 -1.000000
vn 0.000000 0.000000 1.000000
vn 0.000000 0.000000 1.000000
vn 0.000000 0.000000 1.000000
vn 0.000000 0.000000 1.000000
vn 0.000000 0.000000 -1.000000
vn 0.000000 0.000000 -1.000000
vn 0.000000 0.000000 -1.000000
vn 0.000000 0.000000 -1.000000
vn 0.000000 1.000000 0.000000
vn 0.000000 1.000000 0.000000
vn 0.000000 1.000000 0.000000
vn 0.000000 1.000000 0.000000
vn 0.000000 0.000000 1.000000
vn 0.000000 0.000000 1.000000
vn 0.000000 0.000000 1.000000
vn 0.000000 0.000000 1.000000
vn 0.000000 -1.000000 0.000000
vn 0.000000 -1.000000 0.000000
vn 0.000000 -1.000000 0.000000
vn 0.000000 -1.000000 0.000000
vn -1.000000 0.000000 0.000000
vn -1.000000 0.000000 0.000000
vn -1.000000 0.000000 0.000000
vn -1.000000 0.000000 0.000000
vn 1.000000 0.000000 0.000000
vn 1.000000 0.000000 0.000000
vn 1.000000 0.000000 0.000000
vn 1.000000 0.000000 0.000000
vn 1.000000 0.000000 0.000000
vn 1.000000 0.000000 0.000000
vn 1.000000 0.000000 0.000000
vn 1.000000 0.000000 0.000000
vn 0.000000 1.000000 0.000000
vn 0.000000 1.000000 0.000000
vn 0.000000 1.000000 0.000000
vn 0.000000 1.000000 0.000000
vn -1.000000 0.000000 0.000000
vn -1.000000 0.000000 0.000000
vn -1.000000 0.000000 0.000000
vn -1.000000 0.000000 0.000000
vn 0.000000 -1.000000 0.000000
vn 0.000000 -1.000000 0.000000
vn 0.000000 -1.000000 0.000000
vn 0.000000 -1.000000 0.000000
vn 0.000000 0.000000 -1.000000
vn 0.000000 0.000000 -1.000000
vn 0.000000 0.000000 -1.000000
vn 0.000000 0.000000 -1.000000
vn 0.000000 0.000000 1.000000
vn 0.000000 0.000000 1.000000
vn 0.000000 0.000000 1.000000
vn 0.000000 0.000000 1.000000
vn 0.000000 0.000000 1.000000
vn 0.000000 0.000000 1.000000
vn 0.000000 0.000000 1.000000
vn 0.000000 0.000000 1.000000
vn 0.000000 1.000000 0.000000
vn 0.000000 1.000000 0.000000
vn 0.000000 1.000000 0.000000
vn 0.000000 1.000000 0.000000
vn 0.000000 0.000000 -1.000000
vn 0.000000 0.000000 -1.000000
vn 0.000000 0.000000 -1.000000
vn 0.000000 0.000000 -1.000000
vn 0.000000 -1.000000 0.000000
vn 0.000000 -1.000000 0.000000
vn 0.000000 -1.000000 0.000000
vn 0.000000 -1.000000 0.000000
vn 1.000000 0.000000 0.000000
vn 1.000000 0.000000 0.000000
vn 1.000000 0.000000 0.000000
vn 1.000000 0.000000 0.000000
vn -1.000000 0.000000 0.000000
vn -1.000000 0.000000 0.000000
vn -1.000000 0.000000 0.000000
vn -1.000000 0.000000 0.000000
vn 1.000000 0.000005 0.000000
vn 1.000000 0.000005 0.000000
vn 1.000000 0.000005 0.000000
vn 1.000000 0.000005 0.000000
vn 0.000000 1.000000 0.000000
vn 0.000000 1.000000 0.000000
vn 0.000000 1.000000 0.000000
vn 0.000000 1.000000 0.000000
vn -1.000000 -0.000005 0.000000
vn -1.000000 -0.000005 0.000000
vn -1.000000 -0.000005 0.000000
vn -1.000000 -0.000005 0.000000
vn 0.000000 -1.000000 0.000000
vn 0.000000 -1.000000 0.000000
vn 0.000000 -1.000000 0.000000
vn 0.000000 -1.000000 0.000000
vn 0.000000 0.000000 -1.000000
vn 0.000000 0.000000 -1.000000
vn 0.000000 0.000000 -1.000000
vn 0.000000 0.000000 -1.000000
vn 0.000000 0.000000 1.000000
vn 0.000000 0.000000 1.000000
vn 0.000000 0.000000 1.000000
vn 0.000000 0.000000 1.000000
vn 0.000000 0.000000 1.000000
vn 0.000000 0.000000 1.000000
vn 0.000000 0.000000 1.000000
vn 0.000000 0.000000 1.000000
vn 0.000000 1.000000 0.000000
vn 0.000000 1.000000 0.000000
vn 0.000000 1.000000 0.000000
vn 0.000000 1.000000 0.000000
vn 0.000000 0.000000 -1.000000
vn 0.000000 0.000000 -1.000000
vn 0.000000 0.000000 -1.000000
vn 0.000000 0.000000 -1.000000
vn 0.000000 -1.000000 0.000000
vn 0.000000 -1.000000 0.000000
vn 0.000000 -1.000000 0.000000
vn 0.000000 -1.000000 0.000000
vn 1.000000 0.000000 0.000000
vn 1.000000 0.000000 0.000000
vn 1.000000 0.000000 0.000000
vn 1.000000 0.000000 0.000000
vn -1.000000 0.000000 0.000000
vn -1.000000 0.000000 0.000000
vn -1.000000 0.000000 0.000000
vn -1.000000 0.000000 0.000000
s off
g SupportBars
usemtl initialShadingGroup
f 1/1/1 2/2/2 4/3/3 3/4/4
f 3/4/5 4/3/6 6/6/7 5/5/8
f 5/5/9 6/6/10 8/7/11 7/8/12
f 7/89/13 8/90/14 2/2/15 1/1/16
f 2/133/17 8/134/18 6/135/19 4/136/20
f 7/137/21 1/138/22 3/139/23 5/140/24
f 9/9/25 10/10/26 12/11/27 11/12/28
f 11/12/29 12/11/30 14/14/31 13/13/32
f 13/13/33 14/14/34 16/15/35 15/16/36
f 15/16/37 16/15/38 10/91/39 9/92/40
f 10/141/41 16/142/42 14/143/43 12/144/44
f 15/145/45 9/146/46 11/147/47 13/148/48
f 17/149/49 18/150/50 20/94/51 19/93/52
f 19/93/53 20/94/54 22/95/55 21/96/56
f 21/96/57 22/95/58 24/98/59 23/97/60
f 23/97/61 24/98/62 18/99/63 17/100/64
f 18/17/65 24/18/66 22/19/67 20/20/68
f 23/21/69 17/22/70 19/23/71 21/24/72
f 25/25/73 26/26/74 28/27/75 27/28/76
f 27/28/77 28/27/78 30/30/79 29/29/80
f 29/29/81 30/30/82 32/31/83 31/198/84
f 31/32/85 32/197/86 26/26/87 25/25/88
f 26/151/89 32/152/90 30/153/91 28/154/92
f 31/155/93 25/156/94 27/157/95 29/158/96
f 33/33/97 34/34/98 36/35/99 35/36/100
f 35/36/101 36/35/102 38/38/103 37/37/104
f 37/37/105 38/38/106 40/39/107 39/40/108
f 39/40/109 40/39/110 34/101/111 33/102/112
f 34/159/113 40/160/114 38/161/115 36/162/116
f 39/163/117 33/164/118 35/165/119 37/166/120
f 41/41/121 42/42/122 44/43/123 43/44/124
f 43/44/125 44/43/126 46/46/127 45/45/128
f 45/45/129 46/46/130 48/47/131 47/48/132
f 47/103/133 48/104/134 42/42/135 41/41/136
f 42/167/137 48/168/138 46/169/139 44/170/140
f 47/171/141 41/172/142 43/173/143 45/174/144
f 49/175/145 50/176/146 52/106/147 51/105/148
f 51/105/149 52/106/150 54/107/151 53/108/152
f 53/108/153 54/107/154 56/110/155 55/109/156
f 55/109/157 56/110/158 50/111/159 49/112/160
f 50/49/161 56/50/162 54/51/163 52/52/164
f 55/53/165 49/54/166 51/55/167 53/56/168
f 57/57/169 58/58/170 60/59/171 59/60/172
f 59/113/173 60/114/174 62/62/175 61/61/176
f 61/61/177 62/62/178 64/63/179 63/64/180
f 63/64/181 64/63/182 58/58/183 57/57/184
f 58/177/185 64/178/186 62/179/187 60/180/188
f 63/181/189 57/182/190 59/183/191 61/184/192
f 65/122/193 66/121/194 68/185/195 67/186/196
f 67/115/197 68/116/198 70/117/199 69/118/200
f 69/118/201 70/117/202 72/120/203 71/119/204
f 71/119/205 72/120/206 66/121/207 65/122/208
f 66/65/209 72/66/210 70/67/211 68/68/212
f 71/69/213 65/70/214 67/71/215 69/72/216
f 73/73/217 74/74/218 76/75/219 75/76/220
f 75/76/221 76/75/222 78/123/223 77/124/224
f 77/77/225 78/78/226 80/79/227 79/80/228
f 79/80/229 80/79/230 74/74/231 73/73/232
f 74/187/233 80/188/234 78/189/235 76/190/236
f 79/191/237 73/192/238 75/193/239 77/194/240
f 81/132/241 82/131/242 84/195/243 83/196/244
f 83/125/245 84/126/246 86/127/247 85/128/248
f 85/128/249 86/127/250 88/130/251 87/129/252
f 87/129/253 88/130/254 82/131/255 81/132/256
f 82/81/257 88/82/258 86/83/259 84/84/260
f 87/85/261 81/86/262 83/87/263 85/88/264
