# This file uses meters as units for non-parametric coordinates.

mtllib TempleRoom4.mtl
g default
v -1353.556889 4.452850 -1542.433219
v -1353.556889 4.452850 -1571.998527
v -1353.556889 1106.925659 -1542.433219
v -1353.556889 1106.925659 -1571.998527
v -2751.055913 1106.925659 -1542.293082
v -2779.870854 1106.925659 -1570.396110
v -2871.046147 4.452850 -1546.013663
v -2900.611577 4.452850 -1570.396110
v -2777.380375 866.558350 -1542.293082
v -1353.556889 866.250366 -1542.433341
v -1353.556889 866.250366 -1571.998527
v -2806.195561 866.558350 -1570.396110
v -2839.136723 295.816559 -1546.013663
v -1353.556889 285.962433 -1542.433341
v -1353.556889 285.962433 -1571.998527
v -2868.701909 295.816559 -1570.396110
v -2900.611577 4.452850 774.591256
v -2871.046147 4.452850 747.183297
v -2779.870854 1106.925659 774.591256
v -2750.305668 1106.925659 747.183297
v -2779.870854 1106.925659 174.004037
v -2750.305668 1106.925659 174.004037
v -2871.046147 4.452850 174.004037
v -2900.611577 4.452850 174.004037
v -2900.611577 4.452850 -999.080924
v -2871.046147 4.452850 -999.080924
v -2750.305668 1106.925659 -999.080924
v -2779.870854 1106.925659 -999.080924
v -2779.870854 1106.925659 467.276009
v -2750.305668 1106.925659 467.276009
v -2871.046147 4.452850 467.276009
v -2900.611577 4.452850 467.276009
v -2900.611577 4.452850 -1292.352653
v -2871.046147 4.452850 -1292.352653
v -2750.305668 1106.925659 -1292.352653
v -2779.870854 1106.925659 -1292.352653
v -2779.870854 1106.925659 -559.174186
v -2750.305668 1106.925659 -559.174186
v -2871.046147 4.452850 -559.174186
v -2900.611577 4.452850 -559.174186
v -2871.046147 4.452850 -265.903190
v -2750.305668 1106.925659 -265.903190
v -2779.870854 1106.925659 -265.903190
v -2900.611577 4.452850 -265.903190
v -2871.046147 4.452850 -632.491813
v -2750.305668 1106.925659 -632.491813
v -2779.870854 1106.925659 -632.491813
v -2900.611577 4.452850 -632.491813
v -2900.611577 4.452850 -925.763297
v -2871.046147 4.452850 -925.763297
v -2750.305668 1106.925659 -925.763297
v -2779.870854 1106.925659 -925.763297
v -2750.305668 1106.925659 -1365.670402
v -2871.046147 4.452850 -1365.670402
v -2900.611577 4.452850 -1365.670402
v -2779.870854 1106.925659 -1365.670402
v -2750.305668 1106.925659 -192.584830
v -2871.046147 4.452850 -192.584830
v -2900.611577 4.452850 -192.584830
v -2779.870854 1106.925659 -192.584830
v -2779.870854 1106.925659 100.686410
v -2750.305668 1106.925659 100.686410
v -2871.046147 4.452850 100.686410
v -2900.611577 4.452850 100.686410
v -2871.046147 4.452850 540.593636
v -2750.305668 1106.925659 540.593636
v -2779.870854 1106.925659 540.593636
v -2900.611577 4.452850 540.593636
v -2868.701909 295.816559 774.591256
v -2839.136723 295.816559 747.183297
v -2839.136723 295.816559 540.593636
v -2839.136723 295.816559 467.276009
v -2839.136723 295.816559 174.004037
v -2839.136723 295.816559 100.686410
v -2839.136723 295.816559 -192.584830
v -2839.136723 295.816559 -265.903190
v -2839.136723 295.816559 -559.174186
v -2839.136723 295.816559 -632.491813
v -2839.136723 295.816559 -925.763297
v -2839.136723 295.816559 -999.080924
v -2839.136723 295.816559 -1292.352653
v -2839.136723 295.816559 -1365.670402
v -2868.701909 295.816559 -1365.670402
v -2868.701909 295.816559 -1292.352653
v -2868.701909 295.816559 -999.080924
v -2868.701909 295.816559 -925.763297
v -2868.701909 295.816559 -632.491813
v -2868.701909 295.816559 -559.174186
v -2868.701909 295.816559 -265.903190
v -2868.701909 295.816559 -192.584830
v -2868.701909 295.816559 100.686410
v -2868.701909 295.816559 174.004037
v -2868.701909 295.816559 467.276009
v -2868.701909 295.816559 540.593636
v -2776.630131 866.558350 -1365.670402
v -2776.630131 866.558411 -1292.352653
v -2776.630131 866.558411 -999.080924
v -2776.630131 866.558411 -925.763297
v -2776.630131 866.558411 -632.491813
v -2776.630131 866.558350 -559.174186
v -2776.630131 866.558411 -265.903190
v -2776.630131 866.558350 -192.584830
v -2776.630131 866.558350 100.686410
v -2776.630131 866.558350 174.004037
v -2776.630131 866.558350 467.275277
v -2776.630131 866.558411 540.593636
v -2776.630131 866.558411 747.183297
v -2806.195561 866.558411 774.591256
v -2806.195561 866.558350 540.593636
v -2806.195561 866.558411 467.276009
v -2806.195561 866.558411 174.004037
v -2806.195561 866.558411 100.686410
v -2806.195561 866.558411 -192.584830
v -2806.195561 866.558350 -265.903190
v -2806.195561 866.558411 -559.174186
v -2806.195561 866.558350 -632.491813
v -2806.195561 866.558350 -925.763297
v -2806.195561 866.558350 -999.080924
v -2806.195561 866.558350 -1292.352653
v -2806.195561 866.558411 -1365.670402
v -1408.891850 4.452850 776.179940
v -1408.891850 4.452850 746.614633
v -1408.891850 1106.925659 776.179940
v -1408.891850 1106.925659 746.614633
v -1408.891850 865.056274 776.179940
v -1408.891850 865.056274 746.614633
v -1408.891850 299.423828 776.179940
v -1408.891850 299.423828 746.614633
vt 0.594380 0.409181
vt 0.541648 0.409181
vt 0.541648 0.306559
vt 0.594380 0.306559
vt 0.594380 0.452401
vt 0.541648 0.452401
vt 0.541648 0.254170
vt 0.594380 0.254170
vt 0.528465 0.452400
vt 0.528465 0.409181
vt 0.607563 0.409181
vt 0.607563 0.452401
vt 0.528465 0.306559
vt 0.528465 0.254170
vt 0.607563 0.306559
vt 0.607563 0.254170
vt 0.475733 0.452401
vt 0.475733 0.409181
vt 0.660295 0.409181
vt 0.660295 0.452401
vt 0.475733 0.306559
vt 0.475733 0.254170
vt 0.660295 0.254170
vt 0.660295 0.306559
vt 0.462550 0.452400
vt 0.462550 0.409181
vt 0.673478 0.409181
vt 0.673477 0.452400
vt 0.462550 0.306559
vt 0.462550 0.254170
vt 0.673478 0.306559
vt 0.673478 0.254170
vt 0.409819 0.452400
vt 0.409819 0.409181
vt 0.705274 0.409335
vt 0.705196 0.452683
vt 0.409819 0.254170
vt 0.409819 0.306559
vt 0.705954 0.253869
vt 0.705860 0.306414
vt 0.396636 0.452400
vt 0.396636 0.409181
vt 0.396636 0.306559
vt 0.396636 0.254170
vt 0.343904 0.452400
vt 0.343904 0.409181
vt 0.343904 0.306559
vt 0.343904 0.254170
vt 0.330721 0.452400
vt 0.330721 0.409181
vt 0.330721 0.306559
vt 0.330721 0.254170
vt 0.293575 0.452688
vt 0.293575 0.409339
vt 0.293575 0.306410
vt 0.293575 0.253864
vt 0.408606 0.084216
vt 0.462317 0.084216
vt 0.462317 0.188743
vt 0.408606 0.188743
vt 0.408606 0.030855
vt 0.462317 0.030855
vt 0.462317 0.232765
vt 0.408606 0.232765
vt 0.475744 0.084216
vt 0.475744 0.030855
vt 0.395179 0.084216
vt 0.395179 0.030855
vt 0.475744 0.188743
vt 0.475744 0.232765
vt 0.395179 0.232765
vt 0.395179 0.188743
vt 0.529455 0.030855
vt 0.529455 0.084216
vt 0.341468 0.030855
vt 0.341468 0.084216
vt 0.529455 0.232765
vt 0.529455 0.188743
vt 0.341468 0.232765
vt 0.341468 0.188743
vt 0.542883 0.084216
vt 0.542883 0.030855
vt 0.328040 0.084216
vt 0.328040 0.030855
vt 0.542883 0.188743
vt 0.542883 0.232765
vt 0.328040 0.232765
vt 0.328040 0.188743
vt 0.596593 0.030855
vt 0.596593 0.084216
vt 0.290546 0.030544
vt 0.290546 0.084065
vt 0.596593 0.232765
vt 0.596593 0.188743
vt 0.290546 0.233057
vt 0.290546 0.188904
vt 0.610021 0.084216
vt 0.610021 0.030855
vt 0.610021 0.188743
vt 0.610021 0.232765
vt 0.663731 0.030855
vt 0.663731 0.084216
vt 0.663731 0.232765
vt 0.663731 0.188743
vt 0.677159 0.084216
vt 0.677159 0.030855
vt 0.677159 0.188743
vt 0.677159 0.232765
vt 0.720014 0.030544
vt 0.720014 0.084064
vt 0.720014 0.188904
vt 0.720014 0.233057
vt 0.626213 0.503750
vt 0.626213 0.490077
vt 0.631726 0.490077
vt 0.631726 0.503750
vt 0.638667 0.503750
vt 0.638667 0.490077
vt 0.644181 0.490077
vt 0.644181 0.503750
vt 0.656635 0.490077
vt 0.656635 0.503750
vt 0.651121 0.503750
vt 0.651121 0.490077
vt 0.693997 0.490077
vt 0.693997 0.503750
vt 0.688484 0.503750
vt 0.688484 0.490077
vt 0.669089 0.490077
vt 0.669089 0.503750
vt 0.663576 0.503750
vt 0.663576 0.490077
vt 0.681543 0.490077
vt 0.681543 0.503750
vt 0.676030 0.503750
vt 0.676030 0.490077
vt 0.594364 0.490077
vt 0.594364 0.503750
vt 0.588850 0.503750
vt 0.588850 0.490077
vt 0.606818 0.490077
vt 0.606818 0.503750
vt 0.601305 0.503750
vt 0.601305 0.490077
vt 0.706451 0.490077
vt 0.706451 0.503750
vt 0.700938 0.503750
vt 0.700938 0.490077
vt 0.718906 0.490077
vt 0.718906 0.503750
vt 0.713392 0.503750
vt 0.713392 0.490077
vt 0.619272 0.490077
vt 0.619272 0.503750
vt 0.613759 0.503750
vt 0.613759 0.490078
vt 0.731360 0.490077
vt 0.731360 0.503750
vt 0.725847 0.503750
vt 0.725847 0.490077
vt 0.026081 0.217972
vt 0.030880 0.261788
vt 0.014511 0.112328
vt 0.008898 0.061078
vt 0.959707 0.438216
vt 0.954842 0.481216
vt 0.971437 0.334539
vt 0.977128 0.284242
vt 0.322956 0.586191
vt 0.311300 0.479759
vt 0.316813 0.479759
vt 0.328469 0.586191
vt 0.351599 0.479759
vt 0.339942 0.586191
vt 0.334429 0.586191
vt 0.346085 0.479759
vt 0.363072 0.484564
vt 0.374728 0.590996
vt 0.369214 0.590996
vt 0.357558 0.484564
vt 0.397857 0.484564
vt 0.386201 0.590996
vt 0.380687 0.590996
vt 0.392344 0.484564
vt 0.403817 0.590996
vt 0.415473 0.484564
vt 0.420986 0.484564
vt 0.409330 0.590996
vt 0.432459 0.484564
vt 0.444115 0.590996
vt 0.438602 0.590996
vt 0.426946 0.484564
vt 0.455588 0.484564
vt 0.467245 0.590996
vt 0.461731 0.590996
vt 0.450075 0.484564
vt 0.473204 0.590996
vt 0.484860 0.484564
vt 0.490374 0.484564
vt 0.478718 0.590996
vt 0.507990 0.590996
vt 0.496333 0.484564
vt 0.501847 0.484564
vt 0.513503 0.590996
vt 0.519463 0.590996
vt 0.531119 0.484564
vt 0.536632 0.484564
vt 0.524976 0.590996
vt 0.559761 0.484564
vt 0.548105 0.590996
vt 0.542592 0.590996
vt 0.554248 0.484564
vt 0.577377 0.596510
vt 0.565721 0.490077
vt 0.571234 0.490077
vt 0.582891 0.596510
vt 0.049081 0.436002
vt 0.053815 0.479233
vt 0.038008 0.334903
vt 0.032234 0.282181
vt 0.974429 0.216651
vt 0.969607 0.260684
vt 0.985707 0.113675
vt 0.991588 0.059974
vn -0.001089 0.000059 -0.999999
vn -0.001088 0.000059 -0.999999
vn -0.001113 0.000061 -0.999999
vn -0.001113 0.000061 -0.999999
vn -0.000856 -0.002343 0.999997
vn -0.000821 -0.002257 0.999997
vn 0.000099 -0.000006 1.000000
vn 0.000099 -0.000006 1.000000
vn -0.001633 -0.001950 0.999997
vn -0.001600 -0.002042 0.999997
vn -0.001068 0.000059 -0.999999
vn -0.001067 0.000059 -1.000000
vn -0.002384 0.000133 0.999997
vn -0.002384 0.000133 0.999997
vn -0.001046 0.000058 -0.999999
vn -0.001046 0.000058 -1.000000
vn 0.994056 -0.108867 0.000000
vn 0.994056 -0.108867 -0.000000
vn 0.994056 -0.108867 0.000000
vn 0.994056 -0.108867 0.000000
vn -0.994056 0.108867 0.000000
vn -0.994056 0.108867 0.000000
vn -0.994056 0.108867 -0.000000
vn -0.994056 0.108867 0.000000
vn 0.994056 -0.108867 0.000000
vn 0.994056 -0.108867 0.000000
vn 0.994056 -0.108867 -0.000000
vn 0.994056 -0.108867 0.000000
vn -0.994056 0.108867 0.000000
vn -0.994056 0.108867 -0.000000
vn -0.994056 0.108867 0.000000
vn -0.994056 0.108867 0.000000
vn 0.994056 -0.108867 0.000000
vn 0.994056 -0.108867 0.000000
vn 0.994056 -0.108867 0.000000
vn 0.994056 -0.108867 0.000000
vn -0.994056 0.108867 0.000000
vn -0.994056 0.108867 0.000000
vn -0.994056 0.108867 0.000000
vn -0.994056 0.108867 0.000000
vn 0.994056 -0.108867 0.000000
vn 0.994056 -0.108867 0.000000
vn 0.994056 -0.108867 0.000000
vn 0.994056 -0.108867 0.000000
vn -0.994056 0.108867 0.000000
vn -0.994056 0.108867 0.000000
vn -0.994056 0.108867 0.000000
vn -0.994056 0.108867 0.000000
vn 0.994056 -0.108867 0.000000
vn 0.994056 -0.108867 0.000000
vn 0.994056 -0.108867 0.000000
vn 0.994056 -0.108867 0.000000
vn -0.994056 0.108867 -0.000000
vn -0.994056 0.108867 -0.000000
vn -0.994056 0.108867 -0.000000
vn -0.994056 0.108867 -0.000000
vn 0.994103 -0.108406 -0.002715
vn 0.994098 -0.108456 -0.002421
vn 0.994097 -0.108489 -0.001211
vn 0.994102 -0.108437 -0.001376
vn -0.994056 0.108867 -0.000000
vn -0.994056 0.108867 -0.000000
vn -0.994056 0.108867 -0.000000
vn -0.994056 0.108867 -0.000000
vn 0.994056 -0.108867 0.000000
vn 0.994056 -0.108867 0.000000
vn 0.994056 -0.108867 0.000000
vn 0.994056 -0.108867 0.000000
vn -0.994056 0.108867 0.000000
vn -0.994056 0.108867 0.000000
vn -0.994056 0.108867 0.000000
vn -0.994056 0.108867 0.000000
vn 0.994056 -0.108866 0.000000
vn 0.994056 -0.108866 0.000000
vn 0.994056 -0.108866 0.000000
vn 0.994056 -0.108866 0.000000
vn 0.994056 -0.108866 0.000000
vn 0.994056 -0.108866 0.000000
vn 0.994056 -0.108867 0.000000
vn 0.994056 -0.108867 0.000000
vn 0.994056 -0.108867 0.000000
vn 0.994056 -0.108867 0.000000
vn 0.994056 -0.108867 0.000000
vn 0.994056 -0.108867 0.000000
vn 0.994056 -0.108866 0.000000
vn 0.994056 -0.108866 0.000000
vn -0.994056 0.108868 0.000000
vn -0.994056 0.108868 0.000000
vn -0.994056 0.108867 0.000000
vn -0.994056 0.108867 0.000000
vn -0.994056 0.108867 0.000000
vn -0.994056 0.108867 0.000000
vn -0.994056 0.108867 0.000000
vn -0.994056 0.108867 0.000000
vn -0.994056 0.108867 0.000000
vn -0.994056 0.108867 0.000000
vn -0.994056 0.108867 0.000000
vn -0.994056 0.108867 0.000000
vn -0.994056 0.108868 0.000000
vn -0.994056 0.108868 0.000000
vn 0.994052 -0.108866 -0.002984
vn 0.994048 -0.108865 -0.004222
vn 0.994056 -0.108867 0.000000
vn 0.994056 -0.108867 0.000000
vn 0.994056 -0.108866 0.000000
vn 0.994056 -0.108866 -0.000000
vn 0.994056 -0.108867 0.000000
vn 0.994056 -0.108867 -0.000000
vn 0.994056 -0.108866 -0.000000
vn 0.994056 -0.108866 0.000000
vn 0.994056 -0.108866 0.000000
vn 0.994056 -0.108866 0.000000
vn 0.994056 -0.108867 0.000000
vn 0.994056 -0.108867 0.000000
vn -0.994056 0.108868 0.000000
vn -0.994056 0.108868 -0.000000
vn -0.994056 0.108868 0.000000
vn -0.994056 0.108868 0.000000
vn -0.994056 0.108868 0.000000
vn -0.994056 0.108868 -0.000000
vn -0.994056 0.108868 -0.000000
vn -0.994056 0.108868 -0.000000
vn -0.994056 0.108867 -0.000000
vn -0.994056 0.108867 0.000000
vn -0.994056 0.108867 0.000000
vn -0.994056 0.108867 0.000000
vn -0.994056 0.108867 0.000000
vn -0.994056 0.108867 -0.000000
vn 0.000000 -1.000000 0.000000
vn 0.000000 -1.000000 0.000000
vn 0.000000 -1.000000 0.000000
vn 0.000000 -1.000000 0.000000
vn 0.000005 0.000000 1.000000
vn 0.000005 0.000000 1.000000
vn 0.000005 0.000000 1.000000
vn 0.000005 0.000000 1.000000
vn 0.000000 1.000000 0.000000
vn 0.000000 1.000000 0.000000
vn 0.000000 1.000000 0.000000
vn 0.000000 1.000000 0.000000
vn 0.000005 0.000000 -1.000000
vn 0.000005 0.000000 -1.000000
vn 0.000005 0.000000 -1.000000
vn 0.000005 0.000000 -1.000000
vn -0.000004 0.000000 1.000000
vn -0.000004 0.000000 1.000000
vn -0.000004 0.000000 1.000000
vn -0.000004 0.000000 1.000000
vn 0.000003 0.000000 -1.000000
vn 0.000003 0.000000 -1.000000
vn 0.000003 0.000000 -1.000000
vn 0.000003 0.000000 -1.000000
vn 0.000002 -1.000000 0.000000
vn 0.000002 -1.000000 0.000000
vn 0.000002 -1.000000 0.000000
vn 0.000002 -1.000000 0.000000
vn 0.000000 1.000000 0.000000
vn 0.000000 1.000000 0.000000
vn 0.000000 1.000000 0.000000
vn 0.000000 1.000000 0.000000
vn 0.000000 1.000000 0.000000
vn 0.000000 1.000000 0.000000
vn 0.000000 1.000000 0.000000
vn 0.000000 1.000000 0.000000
vn 0.000000 -1.000000 0.000000
vn 0.000000 -1.000000 0.000000
vn 0.000000 -1.000000 0.000000
vn 0.000000 -1.000000 0.000000
vn -0.000002 0.000000 -1.000000
vn -0.000002 0.000000 -1.000000
vn -0.000002 0.000000 -1.000000
vn -0.000002 0.000000 -1.000000
vn -0.000002 0.000000 1.000000
vn -0.000002 0.000000 1.000000
vn -0.000002 0.000000 1.000000
vn -0.000002 0.000000 1.000000
vn -0.000001 0.000000 1.000000
vn -0.000001 0.000000 1.000000
vn -0.000001 0.000000 1.000000
vn -0.000001 0.000000 1.000000
vn 0.000000 -1.000000 0.000000
vn 0.000000 -1.000000 0.000000
vn 0.000000 -1.000000 0.000000
vn 0.000000 -1.000000 0.000000
vn -0.000001 0.000000 -1.000000
vn -0.000001 0.000000 -1.000000
vn -0.000001 0.000000 -1.000000
vn -0.000001 0.000000 -1.000000
vn 0.000000 1.000000 0.000000
vn 0.000000 1.000000 0.000000
vn 0.000000 1.000000 0.000000
vn 0.000000 1.000000 0.000000
vn 0.000000 1.000000 0.000000
vn 0.000000 1.000000 0.000000
vn 0.000000 1.000000 0.000000
vn 0.000000 1.000000 0.000000
vn -0.000000 0.000000 1.000000
vn -0.000000 0.000000 1.000000
vn -0.000000 0.000000 1.000000
vn -0.000000 0.000000 1.000000
vn 0.000000 0.000000 -1.000000
vn 0.000000 0.000000 -1.000000
vn 0.000000 0.000000 -1.000000
vn 0.000000 0.000000 -1.000000
vn -0.000002 -1.000000 0.000000
vn -0.000002 -1.000000 0.000000
vn -0.000002 -1.000000 0.000000
vn -0.000002 -1.000000 0.000000
vn 0.000000 -1.000000 0.000000
vn 0.000000 -1.000000 0.000000
vn 0.000000 -1.000000 0.000000
vn 0.000000 -1.000000 0.000000
vn 0.000000 1.000000 0.000000
vn 0.000000 1.000000 0.000000
vn 0.000000 1.000000 0.000000
vn 0.000000 1.000000 0.000000
vn -0.000002 0.000000 -1.000000
vn -0.000002 0.000000 -1.000000
vn -0.000002 0.000000 -1.000000
vn -0.000002 0.000000 -1.000000
vn 0.000009 -0.000001 1.000000
vn 0.000009 -0.000001 1.000000
vn 0.000009 -0.000001 1.000000
vn 0.000009 -0.000001 1.000000
vn -0.000410 0.000023 -1.000000
vn -0.000410 0.000023 -1.000000
vn -0.000420 0.000023 -1.000000
vn -0.000420 0.000023 -1.000000
vn -0.001122 0.000062 0.999999
vn -0.001123 0.000062 0.999999
vn -0.001148 0.000063 0.999999
vn -0.001148 0.000063 0.999999
vn -0.000402 0.000022 -1.000000
vn -0.000401 0.000022 -1.000000
vn -0.001099 0.000060 0.999999
vn -0.001100 0.000060 0.999999
vn -0.000393 0.000021 -1.000000
vn -0.000393 0.000021 -1.000000
vn -0.001077 0.000059 0.999999
vn -0.001077 0.000059 0.999999
s 1
g TempleRoom4
usemtl initialShadingGroup
f 11/161/1 12/96/2 6/95/3 4/162/4
s 2
f 9/35/5 10/165/6 3/166/7 5/36/8
f 13/40/9 14/167/10 10/165/6 9/35/5
s 1
f 15/163/11 16/92/12 12/96/2 11/161/1
s 2
f 7/39/13 1/168/14 14/167/10 13/40/9
s 1
f 2/164/15 8/91/16 16/92/12 15/163/11
s 3
f 98/1/17 99/2/18 78/3/19 79/4/20
s 4
f 86/57/21 87/58/22 116/59/23 117/60/24
s 3
f 74/38/25 75/29/26 102/26/27 103/34/28
s 4
f 112/94/29 113/85/30 90/81/31 91/90/32
s 3
f 72/47/33 73/43/34 104/42/35 105/46/36
s 4
f 110/104/37 111/99/38 92/97/39 93/102/40
s 3
f 96/19/41 97/11/42 80/15/43 81/24/44
s 4
f 84/76/45 85/67/46 118/72/47 119/80/48
s 3
f 70/55/49 71/51/50 106/50/51 107/54/52
s 4
f 108/111/53 109/107/54 94/105/55 69/110/56
s 3
f 9/35/57 95/27/58 82/31/59 13/40/60
s 4
f 16/92/61 83/83/62 120/88/63 12/96/64
s 3
f 76/21/65 77/13/66 100/10/67 101/18/68
s 4
f 114/78/69 115/69/70 88/65/71 89/74/72
s 3
f 65/52/73 71/51/50 70/55/49 18/56/74
f 72/47/33 71/51/50 65/52/73 31/48/75
f 23/44/76 73/43/34 72/47/33 31/48/75
f 74/38/25 73/43/34 23/44/76 63/37/77
f 63/37/77 58/30/78 75/29/26 74/38/25
f 76/21/65 75/29/26 58/30/78 41/22/79
f 39/14/80 77/13/66 76/21/65 41/22/79
f 78/3/19 77/13/66 39/14/80 45/7/81
f 78/3/19 45/7/81 50/8/82 79/4/20
f 80/15/43 79/4/20 50/8/82 26/16/83
f 80/15/43 26/16/83 34/23/84 81/24/44
f 82/31/59 81/24/44 34/23/84 54/32/85
f 82/31/59 54/32/85 7/39/86 13/40/60
s 4
f 8/91/87 55/84/88 83/83/62 16/92/61
f 84/76/45 83/83/62 55/84/88 33/75/89
f 33/75/89 25/68/90 85/67/46 84/76/45
f 86/57/21 85/67/46 25/68/90 49/61/91
f 49/61/91 48/62/92 87/58/22 86/57/21
f 88/65/71 87/58/22 48/62/92 40/66/93
f 88/65/71 40/66/93 44/73/94 89/74/72
f 90/81/31 89/74/72 44/73/94 59/82/95
f 90/81/31 59/82/95 64/89/96 91/90/32
f 92/97/39 91/90/32 64/89/96 24/98/97
f 92/97/39 24/98/97 32/101/98 93/102/40
f 94/105/55 93/102/40 32/101/98 68/106/99
f 94/105/55 68/106/99 17/109/100 69/110/56
s 3
f 53/28/101 95/27/58 9/35/57 5/36/102
f 35/20/103 96/19/41 95/27/58 53/28/101
f 27/12/104 97/11/42 96/19/41 35/20/103
f 51/5/105 98/1/17 97/11/42 27/12/104
f 51/5/105 46/6/106 99/2/18 98/1/17
f 38/9/107 100/10/67 99/2/18 46/6/106
f 100/10/67 38/9/107 42/17/108 101/18/68
f 57/25/109 102/26/27 101/18/68 42/17/108
f 102/26/27 57/25/109 62/33/110 103/34/28
f 22/41/111 104/42/35 103/34/28 62/33/110
f 104/42/35 22/41/111 30/45/112 105/46/36
f 66/49/113 106/50/51 105/46/36 30/45/112
f 106/50/51 66/49/113 20/53/114 107/54/52
s 4
f 67/108/115 109/107/54 108/111/53 19/112/116
f 29/103/117 110/104/37 109/107/54 67/108/115
f 29/103/117 21/100/118 111/99/38 110/104/37
f 61/93/119 112/94/29 111/99/38 21/100/118
f 61/93/119 60/86/120 113/85/30 112/94/29
f 43/77/121 114/78/69 113/85/30 60/86/120
f 43/77/121 37/70/122 115/69/70 114/78/69
f 47/63/123 116/59/23 115/69/70 37/70/122
f 116/59/23 47/63/123 52/64/124 117/60/24
f 28/71/125 118/72/47 117/60/24 52/64/124
f 118/72/47 28/71/125 36/79/126 119/80/48
f 56/87/127 120/88/63 119/80/48 36/79/126
f 120/88/63 56/87/127 6/95/128 12/96/64
s off
f 119/113/129 120/114/130 95/115/131 96/116/132
f 120/169/133 83/170/134 82/171/135 95/172/136
f 83/117/137 84/118/138 81/119/139 82/120/140
f 96/173/141 81/174/142 84/175/143 119/176/144
f 80/177/145 97/178/146 118/179/147 85/180/148
f 98/181/149 79/182/150 86/183/151 117/184/152
f 97/121/153 98/122/154 117/123/155 118/124/156
f 79/125/157 80/126/158 85/127/159 86/128/160
f 77/129/161 78/130/162 87/131/163 88/132/164
f 99/133/165 100/134/166 115/135/167 116/136/168
f 88/185/169 115/186/170 100/187/171 77/188/172
f 78/189/173 99/190/174 116/191/175 87/192/176
f 76/193/177 101/194/178 114/195/179 89/196/180
f 101/137/181 102/138/182 113/139/183 114/140/184
f 90/197/185 113/198/186 102/199/187 75/200/188
f 75/141/189 76/142/190 89/143/191 90/144/192
f 73/145/193 74/146/194 91/147/195 92/148/196
f 112/201/197 91/202/198 74/203/199 103/204/200
f 92/205/201 111/206/202 104/207/203 73/208/204
f 103/149/205 104/150/206 111/151/207 112/152/208
f 105/153/209 106/154/210 109/155/211 110/156/212
f 71/157/213 72/158/214 93/159/215 94/160/216
f 106/209/217 71/210/218 94/211/219 109/212/220
f 110/213/221 93/214/222 72/215/223 105/216/224
s 17
f 126/217/225 107/54/226 20/53/227 124/218/228
s 18
f 108/111/229 125/221/230 123/222/231 19/112/232
s 17
f 128/219/233 70/55/234 107/54/226 126/217/225
s 18
f 69/110/235 127/223/236 125/221/230 108/111/229
s 17
f 122/220/237 18/56/238 70/55/234 128/219/233
s 18
f 17/109/239 121/224/240 127/223/236 69/110/235
