# This file uses meters as units for non-parametric coordinates.

mtllib TempleRoom2.mtl
g default
v 780.906001 4.452850 -543.494193
v 800.589595 4.452850 -513.928947
v 784.170162 1106.925659 -540.378776
v 800.589595 1106.925659 -513.928947
v 787.343990 1106.925659 -1903.955314
v 811.240474 1106.925659 -1933.520621
v 784.170162 4.452850 -1904.402091
v 811.240474 4.452850 -1933.520621
v -823.066655 1106.925659 -513.928947
v -797.213139 1106.925659 -540.378776
v -823.066655 4.452850 -513.928947
v -797.213139 4.452850 -540.378776
v 214.132076 1106.925659 -513.928947
v 214.132076 1106.925659 -543.494193
v 214.132076 4.452850 -543.494193
v 214.132076 4.452850 -513.928947
v -222.628178 4.452850 -513.928947
v -222.628178 4.452850 -543.494193
v -222.628178 1106.925659 -543.494254
v -222.628178 1106.925659 -513.929008
v 800.589595 608.682922 -513.928947
v 784.170162 610.352051 -540.378776
v 214.132076 608.682922 -543.494193
v -222.628178 608.682983 -543.494254
v -797.213139 595.306580 -540.378776
v -823.066655 608.682922 -513.928947
v -222.628178 608.682983 -513.929008
v 214.132076 608.682922 -513.928947
v -822.282475 1106.925659 -1933.520621
v -797.213139 1106.925659 -1905.585563
v -822.282475 4.452850 -1933.520621
v -797.213139 4.452850 -1905.585563
v -798.385991 1106.925659 -1903.955314
v -798.385991 4.452850 -1903.955314
v 214.132076 1106.925659 -1903.955314
v 214.132076 1106.925659 -1933.520621
v 214.132076 4.452850 -1933.520621
v 214.132076 4.452850 -1903.955314
v -222.628178 4.452850 -1903.955314
v -222.628178 4.452850 -1933.520621
v -222.628178 1106.925659 -1933.520621
v -222.628178 1106.925659 -1903.955436
v 787.343990 721.704163 -1903.955314
v 811.240474 714.405884 -1933.520621
v 214.132076 714.405884 -1933.520621
v -222.628178 714.405945 -1933.520621
v -822.282475 714.405884 -1933.520621
v -798.385991 721.704163 -1903.955314
v -222.628178 721.704163 -1903.955436
v 214.132076 721.704163 -1903.955314
v -797.213139 595.306641 -1905.585563
vt 0.113006 0.278881
vt 0.096324 0.502876
vt 0.034389 0.502876
vt 0.034389 0.278881
vt 0.208346 0.278881
vt 0.208346 0.502876
vt 0.241272 0.719911
vt 0.240687 0.505050
vt 0.336290 0.504512
vt 0.354446 0.719471
vt 0.414642 0.504062
vt 0.415229 0.719388
vt 0.331730 0.255132
vt 0.329841 0.039727
vt 0.410566 0.039019
vt 0.412454 0.254424
vt 0.238503 0.255949
vt 0.236615 0.040544
vt 0.208346 0.760626
vt 0.208346 0.984621
vt 0.113006 0.984621
vt 0.096324 0.760626
vt 0.034389 0.984621
vt 0.034389 0.760626
vt 0.445832 0.814692
vt 0.445832 0.973514
vt 0.439218 0.975147
vt 0.439218 0.814692
vt 0.458818 0.814692
vt 0.458818 0.975147
vt 0.452204 0.973514
vt 0.452204 0.814692
vt 0.471804 0.814692
vt 0.471804 0.949863
vt 0.465190 0.949863
vt 0.465190 0.814692
vt 0.484790 0.814692
vt 0.484790 0.949863
vt 0.478176 0.949863
vt 0.478176 0.814692
vt 0.504149 0.912399
vt 0.504149 0.814692
vt 0.510763 0.814692
vt 0.510763 0.912399
vt 0.491162 0.912399
vt 0.491162 0.814692
vt 0.497776 0.814692
vt 0.497776 0.912399
vt 0.413853 0.413996
vt 0.335239 0.414685
vt 0.334635 0.345772
vt 0.413249 0.345083
vt 0.239902 0.415521
vt 0.239298 0.346608
vt 0.034389 0.117430
vt 0.113005 0.117430
vt 0.113006 0.186345
vt 0.034389 0.186345
vt 0.113005 0.022688
vt 0.034389 0.022688
vt 0.208346 0.022688
vt 0.208346 0.117430
vt 0.208346 0.186345
vt 0.034389 0.597093
vt 0.096324 0.597093
vt 0.096324 0.666008
vt 0.034389 0.666008
vt 0.208346 0.597093
vt 0.208346 0.666008
vt 0.415229 0.878796
vt 0.354446 0.878796
vt 0.354446 0.809881
vt 0.415229 0.809881
vt 0.354446 0.969644
vt 0.415229 0.969644
vt 0.241272 0.969644
vt 0.241272 0.878796
vt 0.241272 0.809881
vn 0.999972 0.000000 0.007503
vn 0.999972 0.000000 0.007503
vn 0.999972 0.000000 0.007503
vn 0.999972 0.000000 0.007503
vn -0.999986 0.004871 -0.002164
vn -0.999986 0.004871 -0.002164
vn -0.999993 0.003039 -0.002225
vn -0.999994 0.002800 -0.002233
vn 0.003092 0.000000 -0.999995
vn 0.002946 0.001047 -0.999995
vn -0.004034 -0.000000 -0.999992
vn -0.003098 0.000000 -0.999995
vn 0.000000 0.000000 1.000000
vn -0.000000 0.000000 1.000000
vn -0.000000 0.000000 1.000000
vn -0.000000 0.000000 1.000000
vn 0.003975 0.001402 -0.999991
vn 0.005465 0.000000 -0.999985
vn 0.000000 0.000000 1.000000
vn 0.000000 0.000000 1.000000
vn -0.005422 -0.000000 -0.999985
vn -0.005422 0.000000 -0.999985
vn 0.000000 0.000000 1.000000
vn 0.000000 0.000000 1.000000
vn 0.002737 0.002567 -0.999993
vn 0.002737 0.002567 -0.999993
vn -0.005422 -0.000000 -0.999985
vn -0.005422 -0.000000 -0.999985
vn -0.000000 0.000000 1.000000
vn -0.000000 0.000000 1.000000
vn 0.000000 0.000000 1.000000
vn 0.000000 0.000000 1.000000
vn 1.000000 0.000000 0.000000
vn 1.000000 0.000000 0.000000
vn 1.000000 0.000000 0.000000
vn 1.000000 0.000000 0.000000
vn -1.000000 0.000000 -0.000552
vn -1.000000 0.000000 -0.000552
vn -1.000000 0.000000 -0.000552
vn -1.000000 0.000000 -0.000552
vn 0.000000 0.000000 -1.000000
vn 0.000000 0.000000 -1.000000
vn 0.000000 0.000000 -1.000000
vn 0.000000 0.000000 -1.000000
vn 0.000000 0.000000 1.000000
vn 0.000000 0.000000 1.000000
vn 0.000200 -0.000160 1.000000
vn -0.000000 0.000000 1.000000
vn 0.000000 0.000000 -1.000000
vn 0.000000 0.000000 -1.000000
vn 0.000254 -0.000203 1.000000
vn 0.000000 0.000000 1.000000
vn 0.000000 0.000000 -1.000000
vn 0.000000 0.000000 -1.000000
vn 0.000000 0.000000 1.000000
vn 0.000000 0.000000 1.000000
vn 0.000000 0.000000 -1.000000
vn 0.000000 0.000000 -1.000000
vn 0.000000 0.000000 -1.000000
vn 0.000000 0.000000 -1.000000
vn 0.000000 0.000000 1.000000
vn 0.000000 0.000000 1.000000
vn 0.000391 -0.000312 1.000000
vn 0.000391 -0.000312 1.000000
vn 0.999972 0.000000 0.007503
vn 0.999972 0.000000 0.007503
vn -1.000000 0.000000 -0.000552
vn -1.000000 0.000000 -0.000552
vn 1.000000 0.000000 0.000000
vn 1.000000 0.000000 0.000000
vn -0.999997 0.000000 -0.002328
vn -0.999997 0.000000 -0.002328
vn -0.000000 -0.970857 0.239659
vn -0.000000 -0.970857 0.239659
vn -0.000000 -0.970857 0.239659
vn -0.000000 -0.970857 0.239659
vn 1.000000 0.000000 0.000000
vn 1.000000 0.000000 0.000000
vn 1.000000 0.000000 0.000000
vn 1.000000 0.000000 0.000000
vn -1.000000 0.000000 0.000000
vn -1.000000 0.000000 0.000000
vn -1.000000 0.000000 0.000000
vn -1.000000 0.000000 0.000000
vn 1.000000 0.000000 0.000000
vn 1.000000 0.000000 0.000000
vn 1.000000 0.000000 0.000000
vn 1.000000 0.000000 0.000000
vn -0.000000 -1.000000 0.000000
vn -0.000000 -1.000000 0.000000
vn -0.000000 -1.000000 0.000000
vn -0.000000 -1.000000 0.000000
vn -1.000000 0.000000 0.000000
vn -1.000000 0.000000 0.000000
vn -1.000000 0.000000 0.000000
vn -1.000000 0.000000 0.000000
s 1
g TempleRoom2
usemtl initialShadingGroup
f 21/1/1 44/2/2 6/3/3 4/4/4
s 2
f 7/7/5 1/8/6 22/9/7 43/10/8
s 3
f 14/49/9 23/50/10 24/51/11 19/52/12
s 4
f 20/55/13 27/56/14 28/57/15 13/58/16
s 3
f 22/9/17 23/50/10 14/49/9 3/11/18
s 4
f 13/58/16 28/57/15 21/1/19 4/4/20
s 3
f 19/52/12 24/51/11 25/13/21 10/16/22
s 4
f 26/59/23 27/56/14 20/55/13 9/60/24
s 3
f 1/8/25 15/53/26 23/50/10 22/9/17
f 25/13/21 24/51/11 18/54/27 12/17/28
s 4
f 11/61/29 17/62/30 27/56/14 26/59/23
f 21/1/19 28/57/15 16/63/31 2/5/32
s 5
f 25/13/33 51/14/34 30/15/35 10/16/36
s 6
f 31/19/37 11/20/38 26/21/39 47/22/40
s 7
f 36/64/41 45/65/42 46/66/43 41/67/44
s 8
f 42/70/45 49/71/46 50/72/47 35/73/48
s 7
f 44/2/49 45/65/42 36/64/41 6/3/50
s 8
f 35/73/48 50/72/47 43/10/51 5/12/52
s 7
f 41/67/44 46/66/43 47/22/53 29/24/54
s 8
f 48/74/55 49/71/46 42/70/45 33/75/56
s 7
f 8/6/57 37/68/58 45/65/42 44/2/49
f 47/22/53 46/66/43 40/69/59 31/19/60
s 8
f 34/76/61 39/77/62 49/71/46 48/74/55
f 43/10/51 50/72/47 38/78/63 7/7/64
s 1
f 2/5/65 8/6/66 44/2/2 21/1/1
s 6
f 47/22/40 26/21/39 9/23/67 29/24/68
s 5
f 12/17/69 32/18/70 51/14/34 25/13/33
s 2
f 43/10/8 22/9/7 3/11/71 5/12/72
s off
f 46/41/73 45/42/74 50/43/75 49/44/76
f 40/25/77 46/26/78 49/27/79 39/28/80
f 38/29/81 50/30/82 45/31/83 37/32/84
f 18/33/85 24/34/86 27/35/87 17/36/88
f 24/45/89 23/46/90 28/47/91 27/48/92
f 16/37/93 28/38/94 23/39/95 15/40/96
