# This file uses meters as units for non-parametric coordinates.

mtllib TempleRoom1.mtl
g default
v 723.918697 4.452850 859.835702
v 701.059871 4.452850 830.270455
v 723.918697 1106.925659 859.835702
v 702.098506 1106.925659 831.239755
v -747.610234 1106.925659 859.835702
v -724.751408 1106.925659 830.270455
v -747.610234 4.452850 859.835702
v -721.165715 4.452850 831.239755
v -257.067662 1106.925659 859.835702
v -257.067662 1106.925659 830.270455
v -385.790196 4.452850 830.270455
v -385.790196 4.452850 859.835702
v -10.642756 1106.925659 859.835702
v -10.642756 1106.925659 830.270455
v 263.008144 4.452850 830.270455
v 263.008144 4.452850 859.835702
v 723.918697 716.235718 859.835702
v 701.059871 716.235718 830.270455
v 97.026065 716.235779 830.270455
v -332.332829 716.235779 830.270455
v -724.751408 716.235779 830.270455
v -747.610234 716.235779 859.835702
v -332.332829 716.235718 859.835702
v 97.026065 716.235718 859.835702
v -747.610234 981.820801 859.835702
v -724.751408 981.820801 830.270455
v -343.042576 981.820801 830.270455
v -8.797073 981.820801 830.270455
v 702.098506 988.927856 831.239755
v 723.918697 981.820801 859.835702
v -8.797073 981.820801 859.835702
v -343.042576 981.820801 859.835702
v 702.098506 1106.925659 -556.118461
v 731.663753 1106.925659 -556.118461
v 702.098506 4.452850 -556.118461
v 731.663753 4.452850 -556.118461
v 702.098506 1106.925659 564.604745
v 731.663753 1106.925659 564.604745
v 731.663753 4.452850 564.604745
v 702.098506 4.452850 564.604745
v 731.663753 612.594666 564.604745
v 731.663753 612.594666 -556.118461
v 702.098506 612.594666 -556.118461
v 702.098506 612.594666 564.604745
v 702.098506 4.452850 297.921945
v 731.663753 4.452850 297.921945
v 731.663753 612.594666 297.921945
v 731.663753 1106.925659 297.921945
v 702.098506 1106.925659 297.921945
v 702.098506 612.594666 297.921945
v -750.730961 1106.925659 -556.118461
v -721.165715 1106.925659 -556.118461
v -750.730961 4.452850 -556.118461
v -721.165715 4.452850 -556.118461
v -750.730961 1106.925537 301.263345
v -721.165715 1106.925537 301.263345
v -721.165715 4.452850 301.263345
v -750.730961 4.452850 301.263345
v -721.165715 612.069641 301.263345
v -721.165715 612.069702 -556.118461
v -750.730961 612.069702 -556.118461
v -750.730961 612.069641 301.263345
v -750.730961 1106.925537 566.258981
v -721.165715 1106.925537 566.258981
v -721.165715 612.069641 566.258981
v -721.165715 4.452850 566.258981
v -750.730961 4.452850 566.258981
v -750.730961 612.069641 566.258981
v -750.730961 983.770264 566.258981
v -750.730961 983.770264 301.263345
v -750.730961 983.770386 -556.118522
v -721.165776 983.770386 -556.118522
v -721.165776 983.770264 301.263375
v -721.165776 983.770264 566.258981
v 702.098506 988.927856 564.604745
v 702.098506 988.927856 297.921945
v 702.098506 988.927856 -556.118461
v 731.663753 988.927856 -556.118461
v 731.663753 988.927856 297.921945
v 731.663753 988.927856 564.604745
vt 0.047013 0.306705
vt 0.047013 0.234201
vt 0.055085 0.234201
vt 0.055085 0.306705
vt 0.047013 0.039887
vt 0.055085 0.039887
vt 0.055085 0.340859
vt 0.047013 0.340859
vt 0.061703 0.340859
vt 0.061703 0.306705
vt 0.069774 0.306705
vt 0.069774 0.340859
vt 0.069774 0.234201
vt 0.061703 0.234201
vt 0.069774 0.039887
vt 0.061703 0.039887
vt 0.602683 0.286986
vt 0.602683 0.359790
vt 0.499945 0.359790
vt 0.499945 0.286986
vt 0.634896 0.359790
vt 0.634896 0.286986
vt 0.528239 0.440387
vt 0.600743 0.440387
vt 0.602683 0.053835
vt 0.499945 0.053835
vt 0.634896 0.440387
vt 0.634896 0.053835
vt 0.333924 0.440387
vt 0.333924 0.359790
vt 0.333924 0.286986
vt 0.333924 0.053835
vt 0.717108 0.951746
vt 0.644304 0.951746
vt 0.644304 0.849009
vt 0.717107 0.849009
vt 0.644304 0.983960
vt 0.717107 0.983959
vt 0.411153 0.849009
vt 0.411153 0.951746
vt 0.789827 0.951747
vt 0.789760 0.877302
vt 0.411153 0.983959
vt 0.789861 0.983960
vt 0.411153 0.682988
vt 0.644304 0.682988
vt 0.717107 0.682988
vt 0.789559 0.682988
vt 0.934975 0.123894
vt 0.934975 0.357957
vt 0.833502 0.357957
vt 0.833502 0.123894
vt 0.968596 0.357957
vt 0.968596 0.123894
vt 0.934975 0.430300
vt 0.833502 0.430300
vt 0.667624 0.357957
vt 0.667624 0.123894
vt 0.968596 0.430300
vt 0.861939 0.502303
vt 0.934443 0.502392
vt 0.968596 0.502434
vt 0.667624 0.502685
vt 0.667624 0.430300
vt 0.167754 0.878953
vt 0.167754 0.644891
vt 0.269228 0.644891
vt 0.269228 0.878953
vt 0.001877 0.878953
vt 0.001877 0.644891
vt 0.269228 0.572548
vt 0.167754 0.572548
vt 0.302849 0.644891
vt 0.302849 0.878953
vt 0.302849 0.572548
vt 0.268695 0.492402
vt 0.196191 0.492402
vt 0.302849 0.492402
vt 0.001877 0.572548
vt 0.001877 0.492402
vt 0.172600 0.039887
vt 0.172600 0.112690
vt 0.164529 0.112690
vt 0.164529 0.039887
vt 0.179219 0.112230
vt 0.179219 0.039887
vt 0.187290 0.039887
vt 0.187290 0.112230
vt 0.934186 0.606615
vt 0.861675 0.609360
vt 0.968281 0.630170
vt 0.667397 0.594287
vt 0.196191 0.379033
vt 0.268695 0.381956
vt 0.001877 0.393626
vt 0.302849 0.358485
vt 0.302849 0.492402
vt 0.954786 0.876961
vt 0.983825 0.949405
vt 0.909071 0.682741
vt 0.984399 0.983557
vt 0.600743 0.640416
vt 0.528239 0.611526
vt 0.634896 0.640920
vt 0.333924 0.566214
vt 0.602683 0.045764
vt 0.499945 0.045764
vt 0.634896 0.045764
vt 0.634896 0.053835
vt 0.333924 0.045764
vt 0.105771 0.205908
vt 0.105771 0.039887
vt 0.113842 0.039887
vt 0.113842 0.205908
vt 0.128532 0.039887
vt 0.128532 0.205908
vt 0.120461 0.205908
vt 0.120461 0.039887
vt 0.269228 0.887025
vt 0.167754 0.887025
vt 0.302849 0.887025
vt 0.001877 0.887025
vt 0.143221 0.039887
vt 0.143221 0.205764
vt 0.135150 0.205764
vt 0.135150 0.039887
vt 0.149840 0.205764
vt 0.149840 0.039887
vt 0.157911 0.039887
vt 0.157911 0.205764
vn 0.000000 0.000000 -1.000000
vn 0.000000 0.000000 -1.000000
vn -0.000947 -0.000451 -1.000000
vn -0.000953 -0.000454 -0.999999
vn 0.000000 0.000000 1.000000
vn 0.000000 0.000000 1.000000
vn 0.000000 0.000000 1.000000
vn 0.000000 0.000000 1.000000
vn 0.000235 0.000629 -1.000000
vn 0.000298 0.000796 -1.000000
vn 0.000975 0.001188 -0.999999
vn 0.000937 0.001302 -0.999999
vn 0.000000 0.000000 1.000000
vn 0.000000 0.000000 1.000000
vn 0.000000 0.000000 1.000000
vn 0.000000 0.000000 1.000000
vn -0.000000 0.000000 -1.000000
vn -0.000000 0.000000 -1.000000
vn -0.001332 -0.000634 -0.999999
vn -0.001332 -0.000634 -0.999999
vn 0.000000 0.000000 1.000000
vn 0.000000 0.000000 1.000000
vn 0.000000 0.000000 1.000000
vn 0.000000 0.000000 1.000000
vn 0.000000 0.000000 -1.000000
vn 0.000000 0.000000 -1.000000
vn 0.001362 0.000010 -0.999999
vn 0.001362 0.000010 -0.999999
vn 0.000000 0.000000 1.000000
vn 0.000000 0.000000 1.000000
vn 0.000000 0.000000 1.000000
vn 0.000000 0.000000 1.000000
vn 0.824149 -0.566373 0.000000
vn 0.824149 -0.566373 0.000000
vn 0.824149 -0.566373 0.000000
vn 0.824149 -0.566373 0.000000
vn 0.999188 0.040292 0.000000
vn 0.999188 0.040292 0.000000
vn 0.999188 0.040292 0.000000
vn 0.999188 0.040292 0.000000
vn 0.997192 -0.074893 0.000000
vn 0.997192 -0.074893 0.000000
vn 0.997192 -0.074893 0.000000
vn 0.997192 -0.074893 0.000000
vn -0.999891 -0.014751 0.000000
vn -0.999891 -0.014751 0.000000
vn -0.999891 -0.014751 0.000000
vn -0.999891 -0.014751 0.000000
vn -0.928972 -0.370151 0.000000
vn -0.928971 -0.370151 0.000000
vn -0.928971 -0.370151 0.000000
vn -0.928971 -0.370151 0.000000
vn -0.973872 -0.227099 0.000000
vn -0.973872 -0.227099 0.000000
vn -0.973872 -0.227099 0.000000
vn -0.973872 -0.227099 0.000000
vn 0.000000 0.000000 -1.000000
vn 0.000000 0.000000 -1.000000
vn 0.000000 0.000000 -1.000000
vn 0.000000 0.000000 -1.000000
vn 1.000000 0.000000 0.000000
vn 0.999915 0.000000 0.013011
vn 0.999803 0.000000 0.019831
vn 1.000000 0.000000 0.000000
vn -1.000000 0.000555 -0.000783
vn -1.000000 0.000000 0.000000
vn -1.000000 0.000000 0.000000
vn -0.999997 0.000276 -0.002602
vn 0.999656 0.000000 0.026225
vn 0.999656 0.000000 0.026225
vn -0.999998 0.001175 -0.001658
vn -0.999995 0.000712 -0.003178
vn 0.999656 0.000000 0.026225
vn 0.999656 0.000000 0.026225
vn 0.000000 0.000000 -1.000000
vn 0.000000 0.000000 -1.000000
vn -0.999992 0.000000 -0.003910
vn -0.999992 0.000000 -0.003910
vn 1.000000 0.000000 0.000000
vn 1.000000 0.000000 0.000000
vn 1.000000 0.000000 0.000000
vn 1.000000 0.000000 0.000000
vn -1.000000 0.000000 0.000000
vn -1.000000 0.000000 0.000000
vn -1.000000 0.000000 0.000000
vn -1.000000 0.000000 0.000000
vn 0.000000 -1.000000 0.000000
vn 0.000000 -1.000000 0.000000
vn 0.000000 -1.000000 0.000000
vn 0.000000 -1.000000 0.000000
vn 0.000000 0.000000 -1.000000
vn 0.000000 0.000000 -1.000000
vn 0.000000 0.000000 -1.000000
vn 0.000000 0.000000 -1.000000
vn 0.000000 0.000000 1.000000
vn 0.000000 0.000000 1.000000
vn 0.000000 0.000000 1.000000
vn 0.000000 0.000000 1.000000
vn 0.000000 0.000000 -1.000000
vn 0.000000 0.000000 -1.000000
vn 0.000000 -0.000000 -1.000000
vn 0.000000 -0.000000 -1.000000
vn 1.000000 0.000000 -0.000000
vn 1.000000 0.000000 0.000000
vn 1.000000 0.000000 0.000000
vn 1.000000 0.000000 0.000000
vn -1.000000 0.000000 0.000000
vn -1.000000 0.000000 0.000000
vn -1.000000 0.000000 0.000000
vn -1.000000 0.000000 0.000000
vn 0.999980 0.000000 0.006394
vn 0.999982 0.001554 0.005859
vn -0.999986 0.000000 0.005287
vn -0.999968 0.000000 0.008060
vn 1.000000 0.000000 0.000000
vn 1.000000 0.000000 0.000000
vn 0.000000 0.000000 -1.000000
vn 0.000000 0.000000 -1.000000
vn -1.000000 0.000000 0.000000
vn -1.000000 0.000000 0.000000
vn 0.999954 0.001526 0.009468
vn 0.999908 0.000000 0.013580
vn 0.999977 0.002722 0.006242
vn 0.999977 0.002722 0.006242
vn -0.999944 0.000000 0.010629
vn -0.999943 0.000000 0.010629
vn -0.999943 0.000000 0.010629
vn -0.999943 0.000000 0.010629
vn 0.000000 0.000000 -1.000000
vn 0.000000 0.000000 -1.000000
vn 0.000000 0.000000 -1.000000
vn 0.000000 0.000000 -1.000000
vn 0.000000 -1.000000 0.000000
vn 0.000000 -1.000000 0.000000
vn 0.000000 -1.000000 0.000000
vn 0.000000 -1.000000 0.000000
vn 0.000000 0.000000 1.000000
vn 0.000000 0.000000 1.000000
vn 0.000000 0.000000 1.000000
vn 0.000000 0.000000 1.000000
vn -0.999984 0.000000 0.005608
vn -0.999944 0.000000 0.010629
vn -1.000000 -0.000000 0.000000
vn -1.000000 -0.000000 0.000000
vn 0.000000 0.000000 -1.000000
vn 0.000000 0.000000 -1.000000
vn 1.000000 -0.000000 -0.000000
vn 1.000000 0.000000 -0.000000
vn 0.999977 -0.000000 0.006805
vn 0.999908 -0.000000 0.013580
vn -1.000000 0.000000 0.000000
vn -1.000000 0.000000 0.000000
vn -1.000000 0.000000 0.000000
vn -1.000000 0.000000 0.000000
vn 0.000000 0.000000 -1.000000
vn 0.000000 0.000000 -1.000000
vn 1.000000 0.000000 0.000000
vn 1.000000 0.000000 0.000000
vn 0.999902 0.000000 0.013976
vn 0.999656 0.000000 0.026225
s 1
g TempleRoom1
usemtl initialShadingGroup
f 26/61/1 27/89/2 20/90/3 21/60/4
s 2
f 22/77/5 23/93/6 32/94/7 25/76/8
s 3
f 18/42/9 19/98/10 28/99/11 29/41/12
s 4
f 30/24/13 31/102/14 24/103/15 17/23/16
s 3
f 2/48/17 15/100/18 19/98/10 18/42/9
s 1
f 21/60/4 20/90/3 11/92/19 8/63/20
s 2
f 7/80/21 12/95/22 23/93/6 22/77/5
s 4
f 17/23/16 24/103/15 16/105/23 1/29/24
s 1
f 10/91/25 27/89/2 26/61/1 6/62/26
s 3
f 29/41/12 28/99/11 14/101/27 4/44/28
s 4
f 13/104/29 31/102/14 30/24/13 3/27/30
s 2
f 25/76/8 32/94/7 9/96/31 5/97/32
s off
f 27/4/33 10/7/34 9/8/35 32/1/36
f 32/1/37 23/2/38 20/3/39 27/4/40
f 23/2/41 12/5/42 11/6/43 20/3/44
f 14/9/45 28/10/46 31/11/47 13/12/48
f 24/13/49 31/11/50 28/10/51 19/14/52
f 16/15/53 24/13/54 19/14/55 15/16/56
s 5
f 77/106/57 78/25/58 42/26/59 43/107/60
s 6
f 79/17/61 80/18/62 41/19/63 47/20/64
s 7
f 75/33/65 76/34/66 50/35/67 44/36/68
s 6
f 17/23/69 41/19/63 80/18/62 30/24/70
s 7
f 29/41/71 75/33/65 44/36/68 18/42/72
s 6
f 1/29/73 39/30/74 41/19/63 17/23/69
s 5
f 43/107/60 42/26/59 36/32/75 35/110/76
s 7
f 18/42/72 44/36/68 40/47/77 2/48/78
s 6
f 42/26/79 47/20/64 46/31/80 36/32/81
f 78/25/82 79/17/61 47/20/64 42/26/79
s 7
f 43/39/83 50/35/67 76/34/66 77/40/84
f 35/45/85 45/46/86 50/35/67 43/39/83
s off
f 47/81/87 41/82/88 44/83/89 50/84/90
f 40/111/91 44/112/92 41/113/93 39/114/94
f 46/115/95 47/116/96 50/117/97 45/118/98
s 8
f 71/68/99 72/119/100 60/120/101 61/65/102
s 9
f 72/49/103 73/50/104 59/51/105 60/52/106
s 10
f 61/65/107 62/66/108 70/67/109 71/68/110
s 9
f 73/50/104 74/55/111 65/56/112 59/51/105
s 10
f 69/71/113 70/67/109 62/66/108 68/72/114
s 9
f 60/52/106 59/51/105 57/57/115 54/58/116
s 8
f 61/65/102 60/120/101 54/122/117 53/69/118
s 10
f 53/69/119 58/70/120 62/66/108 61/65/107
s 9
f 21/60/121 65/56/112 74/55/111 26/61/122
f 8/63/123 66/64/124 65/56/112 21/60/121
s 10
f 22/77/125 68/72/114 67/79/126 7/80/127
f 25/76/128 69/71/113 68/72/114 22/77/125
s off
f 65/123/129 66/124/130 67/125/131 68/126/132
f 68/85/133 62/86/134 59/87/135 65/88/136
f 62/127/137 58/128/138 57/129/139 59/130/140
s 10
f 63/75/141 69/71/113 25/76/128 5/78/142
f 55/73/143 70/67/109 69/71/113 63/75/141
f 71/68/110 70/67/109 55/73/143 51/74/144
s 8
f 51/74/145 52/121/146 72/119/100 71/68/99
s 9
f 56/53/147 73/50/104 72/49/103 52/54/148
f 64/59/149 74/55/111 73/50/104 56/53/147
f 26/61/122 74/55/111 64/59/149 6/62/150
s 7
f 37/38/151 75/33/65 29/41/71 4/44/152
f 49/37/153 76/34/66 75/33/65 37/38/151
f 77/40/84 76/34/66 49/37/153 33/43/154
s 5
f 33/108/155 34/109/156 78/25/58 77/106/57
s 6
f 48/22/157 79/17/61 78/25/82 34/28/158
f 38/21/159 80/18/62 79/17/61 48/22/157
f 30/24/70 80/18/62 38/21/159 3/27/160
