# This file uses meters as units for non-parametric coordinates.

mtllib TempleHall2.mtl
g default
v 1356.419307 4.452850 1362.498910
v 1378.225704 4.452850 1392.064095
v 1356.419307 1106.925659 1362.498910
v 1378.225704 1106.925659 1392.064095
v 1355.213130 1106.925659 -1117.386954
v 1377.490840 1106.925659 -1146.952140
v 1355.213130 4.452850 -1117.386954
v 1377.490840 4.452850 -1146.952140
v 1356.419307 618.697754 1362.498910
v 1378.225704 618.697754 1392.064095
v 1377.490840 521.682373 -1146.952140
v 1355.213130 521.682373 -1117.386954
v 1356.604488 1106.925659 16.012895
v 1386.169795 1106.925659 16.012895
v 1386.169795 616.137878 16.012895
v 1386.169795 4.452850 16.012895
v 1356.604488 4.452850 16.012895
v 1356.604488 616.137878 16.012895
v 1356.604488 1106.925537 344.512887
v 1386.169795 1106.925537 344.512887
v 1386.169795 616.137939 344.512887
v 1386.169795 4.452850 344.512887
v 1356.604488 4.452850 344.512887
v 1356.604488 616.137939 344.512887
v 819.051143 1106.925659 1392.064095
v 819.051143 1106.925659 1362.498910
v 819.051143 4.452850 1392.064095
v 819.051143 4.452850 1362.498910
v 801.867427 4.452850 -1146.952140
v 801.867427 4.452850 -1117.386954
v 801.867427 1106.925659 -1146.952140
v 801.867427 1106.925659 -1117.386954
v 1182.818111 1106.925537 -1146.952140
v 1182.818111 1106.925537 -1117.386954
v 1182.818111 4.452850 -1117.386954
v 1182.818111 4.452850 -1146.952140
v 923.716915 1106.925659 -1146.952140
v 923.716915 1106.925659 -1117.386954
v 923.716915 4.452850 -1117.386954
v 923.716915 4.452850 -1146.952140
v 801.867427 521.682373 -1146.952140
v 801.867427 521.682373 -1117.386954
v 923.716915 521.682373 -1117.386954
v 1182.818111 521.682373 -1117.386954
v 1182.818111 521.682373 -1146.952140
v 923.716915 521.682373 -1146.952140
v 1053.267574 558.203186 -1146.952140
v 1053.267574 1106.925537 -1146.952140
v 1053.267574 1106.925537 -1117.386954
v 1053.267574 558.203186 -1117.386954
v -826.114506 4.452850 -1089.075187
v -826.114506 4.452850 -1118.640372
v -826.114506 1106.925659 -1089.075187
v -826.114506 1106.925659 -1118.640372
v -1385.705083 1106.925659 -1089.075187
v -1407.682499 1106.925659 -1118.640372
v -1385.705083 4.452850 -1089.075187
v -1407.682499 4.452850 -1118.640372
v -1207.065068 1106.925537 -1089.075187
v -1207.065068 1106.925537 -1118.640372
v -1207.065068 4.452850 -1118.640372
v -1207.065068 4.452850 -1089.075187
v -947.963933 1106.925659 -1089.075187
v -947.963933 1106.925659 -1118.640372
v -947.963933 4.452850 -1118.640372
v -947.963933 4.452850 -1089.075187
v -826.114506 521.682373 -1089.075187
v -826.114506 521.682373 -1118.640372
v -947.963933 521.682373 -1118.640372
v -1207.065068 521.682373 -1118.640372
v -1407.682499 521.682373 -1118.640372
v -1385.705083 521.682373 -1089.075187
v -1207.065068 521.682373 -1089.075187
v -947.963933 521.682373 -1089.075187
v -1077.514531 558.203186 -1089.075187
v -1077.514531 1106.925537 -1089.075187
v -1077.514531 1106.925537 -1118.640372
v -1077.514531 558.203186 -1118.640372
v -837.615056 4.452850 1392.064095
v -837.615056 4.452850 1362.498910
v -837.615056 1106.925659 1392.064095
v -837.615056 1106.925659 1362.498910
v -1409.302128 1106.925659 1392.064095
v -1383.143071 1106.925659 1362.498910
v -1409.302128 4.452850 1392.064095
v -1383.143071 4.452850 1362.498910
v -1409.302128 628.908875 1392.064095
v -1383.143071 628.908875 1362.498910
v -1412.505253 1106.925659 339.307961
v -1382.939946 1106.925659 339.307961
v -1382.939824 629.689392 339.307961
v -1382.939946 4.452840 339.307992
v -1412.505131 4.452840 339.307992
v -1412.505009 629.689392 339.307992
v -1412.505253 4.452850 5.949077
v -1382.939946 4.452850 5.949077
v -1382.939824 629.689392 5.949056
v -1382.939946 1106.925659 5.949056
v -1412.505253 1106.925659 5.949056
v -1412.505009 629.689392 5.949077
v 819.051143 618.697815 1392.064095
v 819.051143 618.697815 1362.498910
v -837.615056 628.908875 1392.064095
v -837.615056 628.908875 1362.498910
vt 0.499573 0.372118
vt 0.400814 0.372118
vt 0.381807 0.138098
vt 0.499573 0.138098
vt 0.499573 0.438221
vt 0.400814 0.438221
vt 0.277726 0.372118
vt 0.277726 0.138098
vt 0.401329 0.649016
vt 0.499573 0.649016
vt 0.277726 0.649016
vt 0.277726 0.438221
vt 0.617286 0.632111
vt 0.636293 0.404041
vt 0.735053 0.404041
vt 0.735053 0.632111
vt 0.513206 0.632111
vt 0.513206 0.404041
vt 0.636293 0.337938
vt 0.735053 0.337938
vt 0.636808 0.133092
vt 0.735053 0.133092
vt 0.513206 0.337938
vt 0.513206 0.133092
vt 0.636809 0.019010
vt 0.636809 0.024959
vt 0.513206 0.024959
vt 0.513206 0.019010
vt 0.735053 0.019011
vt 0.735053 0.024960
vt 0.617286 0.749408
vt 0.617286 0.743458
vt 0.735052 0.743459
vt 0.735052 0.749408
vt 0.513206 0.749408
vt 0.513206 0.743458
vt 0.866561 0.768792
vt 0.866561 0.762842
vt 0.984327 0.762842
vt 0.984327 0.768791
vt 0.762481 0.768792
vt 0.762481 0.762843
vt 0.888137 0.025557
vt 0.888137 0.019608
vt 0.984327 0.019608
vt 0.984327 0.025557
vt 0.762480 0.025557
vt 0.762480 0.019608
vt 0.253421 0.442329
vt 0.157388 0.442329
vt 0.157388 0.375248
vt 0.253421 0.375248
vt 0.157232 0.648222
vt 0.253421 0.648222
vt 0.135654 0.154900
vt 0.253421 0.154900
vt 0.031575 0.648222
vt 0.031574 0.442329
vt 0.031574 0.375248
vt 0.031574 0.154900
vt 0.984327 0.419518
vt 0.888294 0.419518
vt 0.888294 0.352438
vt 0.984327 0.352438
vt 0.866561 0.645816
vt 0.984327 0.645815
vt 0.888137 0.140595
vt 0.984327 0.140595
vt 0.762480 0.645816
vt 0.762480 0.419518
vt 0.762480 0.352438
vt 0.762480 0.140595
vt 0.098089 0.837596
vt 0.098089 0.771493
vt 0.104038 0.771493
vt 0.104038 0.837596
vt 0.091475 0.771493
vt 0.091475 0.838574
vt 0.085525 0.838574
vt 0.085525 0.771493
vt 0.066347 0.771493
vt 0.066347 0.894580
vt 0.060398 0.894580
vt 0.060398 0.771493
vt 0.078911 0.771493
vt 0.078911 0.894580
vt 0.072962 0.894580
vt 0.072962 0.771493
vt 0.277726 0.761536
vt 0.401328 0.761536
vt 0.499573 0.761536
vt 0.735052 0.666801
vt 0.617286 0.666801
vt 0.735052 0.692870
vt 0.624635 0.692870
vt 0.513206 0.666801
vt 0.735052 0.718939
vt 0.617286 0.718939
vt 0.513206 0.718939
vt 0.381807 0.098925
vt 0.499573 0.098925
vt 0.277726 0.098925
vt 0.389156 0.072856
vt 0.499573 0.072856
vt 0.381807 0.046787
vt 0.499573 0.046787
vt 0.381807 0.022268
vt 0.499573 0.022268
vt 0.277726 0.046787
vt 0.277726 0.022268
vt 0.984327 0.686185
vt 0.866561 0.686185
vt 0.984327 0.712254
vt 0.873910 0.712254
vt 0.762480 0.686185
vt 0.984327 0.738323
vt 0.866561 0.738323
vt 0.762480 0.738323
vt 0.135654 0.118953
vt 0.253421 0.118953
vt 0.031574 0.118953
vt 0.143003 0.092884
vt 0.253421 0.092884
vt 0.135654 0.066815
vt 0.253421 0.066815
vt 0.135654 0.042296
vt 0.253421 0.042296
vt 0.031574 0.066815
vt 0.031574 0.042296
vt 0.157232 0.757996
vt 0.253421 0.757996
vt 0.031575 0.757996
vt 0.041220 0.771493
vt 0.041220 0.897307
vt 0.035271 0.897307
vt 0.035271 0.771493
vt 0.053784 0.771493
vt 0.053784 0.897307
vt 0.047834 0.897307
vt 0.047834 0.771493
vn 0.999982 0.000000 -0.005934
vn 0.999978 0.000000 -0.006628
vn 0.999972 0.000000 -0.007463
vn 0.999972 0.000000 -0.007463
vn -0.999999 0.000000 0.001228
vn -0.999999 0.000000 0.001087
vn -1.000000 0.000000 0.000971
vn -0.999999 0.000000 0.001228
vn 0.999972 0.000000 -0.007463
vn 0.999972 0.000000 -0.007463
vn -0.999999 0.000000 0.001228
vn -0.999999 0.000000 0.001228
vn 0.999983 0.000000 0.005769
vn 0.999978 0.000000 0.006655
vn -1.000000 0.000000 -0.000159
vn -1.000000 0.000000 -0.000137
vn 0.999971 0.000000 0.007583
vn 0.999971 0.000000 0.007583
vn 0.999971 0.000000 0.007583
vn 0.999971 0.000000 0.007583
vn -1.000000 0.000000 -0.000182
vn -1.000000 0.000000 -0.000182
vn -1.000000 0.000000 -0.000182
vn -1.000000 0.000000 -0.000182
vn 0.000000 0.000000 -1.000000
vn 0.000000 0.000000 -1.000000
vn 0.000000 0.000000 -1.000000
vn 0.000000 0.000000 -1.000000
vn 0.000000 -1.000000 0.000000
vn 0.000000 -1.000000 0.000000
vn 0.000000 -1.000000 0.000000
vn 0.000000 -1.000000 0.000000
vn 0.000000 0.000000 1.000000
vn 0.000000 0.000000 1.000000
vn 0.000000 0.000000 1.000000
vn 0.000000 0.000000 1.000000
vn -1.000000 0.000000 0.000000
vn -1.000000 0.000000 0.000000
vn -1.000000 0.000000 0.000000
vn -1.000000 0.000000 0.000000
vn -0.000000 0.000000 -1.000000
vn -0.000000 0.000000 -1.000000
vn -0.000000 0.000000 -1.000000
vn -0.000000 0.000000 -1.000000
vn 0.000000 0.000000 1.000000
vn 0.000000 0.000000 1.000000
vn 0.000000 0.000000 1.000000
vn 0.000000 0.000000 1.000000
vn -1.000000 0.000000 0.000000
vn -1.000000 0.000000 0.000000
vn -1.000000 0.000000 0.000000
vn -1.000000 0.000000 0.000000
vn -0.000000 0.000000 1.000000
vn -0.000000 0.000000 1.000000
vn -0.000000 0.000000 1.000000
vn -0.000000 0.000000 1.000000
vn -0.000000 0.000000 -1.000000
vn -0.000000 0.000000 -1.000000
vn -0.000000 0.000000 -1.000000
vn -0.000001 0.000000 -1.000000
vn 0.000000 0.000000 1.000000
vn 0.000000 0.000000 1.000000
vn 0.000000 0.000000 -1.000000
vn 0.000000 0.000000 -1.000000
vn 0.000000 0.000000 1.000000
vn 0.000000 0.000000 1.000000
vn 0.000001 0.000000 1.000000
vn 0.000000 0.000000 1.000000
vn 0.000000 0.000000 -1.000000
vn 0.000000 0.000000 -1.000000
vn 0.000000 0.000000 -1.000000
vn 0.000000 0.000000 -1.000000
vn -1.000000 0.000000 0.000000
vn -1.000000 0.000000 0.000000
vn 0.000000 0.000000 1.000000
vn 0.000000 0.000000 1.000000
vn 0.000000 0.000000 1.000000
vn 0.000000 0.000000 1.000000
vn 0.000000 0.000000 -1.000000
vn 0.000000 0.000000 -1.000000
vn 0.000000 0.000000 -1.000000
vn 0.000000 0.000000 -1.000000
vn 1.000000 0.000000 0.000000
vn 1.000000 0.000000 0.000000
vn 1.000000 0.000000 0.000000
vn 1.000000 0.000000 0.000000
vn -0.000000 0.000000 -1.000000
vn -0.000000 0.000000 -1.000000
vn -0.000000 0.000000 -1.000000
vn -0.000000 0.000000 -1.000000
vn 0.000000 0.000000 1.000000
vn 0.000000 0.000000 1.000000
vn 0.000000 0.000000 1.000000
vn 0.000000 0.000000 1.000000
vn 0.000000 0.000000 -1.000000
vn 0.000000 0.000000 -1.000000
vn -0.000000 0.000000 1.000000
vn -0.000000 0.000000 1.000000
vn 0.000000 0.000000 -1.000000
vn 0.000000 0.000000 -1.000000
vn 0.000000 0.000000 -1.000000
vn 0.000000 0.000000 -1.000000
vn -0.000000 0.000000 1.000000
vn -0.000000 0.000000 1.000000
vn 0.000000 0.000000 1.000000
vn 0.000000 0.000000 1.000000
vn 1.000000 0.000000 0.000000
vn 1.000000 0.000000 0.000000
vn 0.000000 0.000000 -1.000000
vn 0.000000 0.000000 -1.000000
vn 0.000000 0.000000 -1.000000
vn 0.000000 0.000000 -1.000000
vn 0.000000 0.000000 1.000000
vn 0.000000 0.000000 1.000000
vn 0.000000 0.000000 1.000000
vn 0.000000 0.000000 1.000000
vn 1.000000 0.000000 0.000000
vn 1.000000 0.000000 0.000000
vn 1.000000 0.000000 0.000000
vn 1.000000 0.000000 0.000000
vn 0.000000 0.000000 -1.000000
vn 0.000000 0.000000 -1.000000
vn 0.000000 0.000000 -1.000000
vn 0.000000 0.000000 -1.000000
vn 1.000000 0.000000 0.000150
vn 1.000000 0.000000 0.000174
vn 0.999998 0.000000 -0.002231
vn 0.999998 0.000000 -0.001983
vn -0.999994 -0.000000 -0.003387
vn -0.999993 -0.000000 -0.003800
vn -0.999996 -0.000000 0.002676
vn -0.999997 -0.000000 0.002311
vn 1.000000 0.000000 0.000199
vn 1.000000 0.000000 0.000199
vn 1.000000 0.000000 0.000199
vn 1.000000 0.000000 0.000199
vn -0.999995 0.000000 0.003042
vn -0.999995 0.000000 0.003042
vn -0.999995 -0.000000 0.003042
vn -0.999995 -0.000000 0.003042
vn 0.999997 0.000000 -0.002525
vn 0.999997 0.000000 -0.002525
vn 0.999997 0.000000 -0.002525
vn 0.999997 0.000000 -0.002525
vn -0.999991 0.000000 -0.004288
vn -0.999991 -0.000000 -0.004288
vn -0.999991 0.000000 -0.004288
vn -0.999991 0.000000 -0.004288
vn 0.000000 0.000000 1.000000
vn 0.000000 0.000000 1.000000
vn 0.000000 0.000000 1.000000
vn 0.000000 0.000000 1.000000
vn 0.000000 -1.000000 0.000000
vn 0.000000 -1.000000 0.000000
vn 0.000000 -1.000000 0.000000
vn 0.000000 -1.000000 0.000000
vn 0.000000 -0.000000 -1.000000
vn 0.000000 -0.000000 -1.000000
vn 0.000000 -0.000000 -1.000000
vn 0.000000 -0.000000 -1.000000
vn 0.000000 0.000000 1.000000
vn 0.000000 0.000000 1.000000
vn -1.000000 0.000000 0.000000
vn -1.000000 0.000000 0.000000
vn 0.000000 0.000000 -1.000000
vn 0.000000 0.000000 -1.000000
vn 0.000000 0.000000 1.000000
vn 0.000000 0.000000 1.000000
vn 0.000000 0.000000 1.000000
vn 0.000000 0.000000 1.000000
vn 1.000000 0.000000 0.000000
vn 1.000000 0.000000 0.000000
vn 0.000000 0.000000 -1.000000
vn 0.000000 0.000000 -1.000000
vn 0.000000 0.000000 1.000000
vn 0.000000 0.000000 1.000000
vn 0.000000 0.000000 1.000000
vn 0.000000 0.000000 1.000000
s 1
g TempleHall2
usemtl initialShadingGroup
f 14/1/1 15/2/2 11/3/3 6/4/4
s 2
f 12/13/5 18/14/6 13/15/7 5/16/8
s 1
f 15/2/2 16/7/9 8/8/10 11/3/3
s 2
f 7/17/11 17/18/12 18/14/6 12/13/5
s 1
f 20/5/13 21/6/14 15/2/2 14/1/1
s 2
f 13/15/7 18/14/6 24/19/15 19/20/16
s 1
f 10/9/17 21/6/14 20/5/13 4/10/18
f 2/11/19 22/12/20 21/6/14 10/9/17
s 2
f 24/19/15 23/23/21 1/24/22 9/21/23
f 19/20/16 24/19/15 9/21/23 3/22/24
s off
f 21/81/25 22/82/26 23/83/27 24/84/28
f 24/73/29 18/74/30 15/75/31 21/76/32
f 16/85/33 15/86/34 18/87/35 17/88/36
s 3
f 101/25/37 102/26/38 28/27/39 27/28/40
s 4
f 1/24/41 28/27/42 102/26/43 9/21/44
s 5
f 27/89/45 2/11/46 10/9/47 101/90/48
s 6
f 41/31/49 42/32/50 32/33/51 31/34/52
s 7
f 34/92/53 44/93/54 12/13/55 5/16/56
s 8
f 11/3/57 45/100/58 33/101/59 6/4/60
s 7
f 49/94/61 50/95/62 44/93/54 34/92/53
s 8
f 33/101/59 45/100/58 47/103/63 48/104/64
s 7
f 42/32/65 43/98/66 38/97/67 32/33/68
s 8
f 37/106/69 46/105/70 41/107/71 31/108/72
s 6
f 29/35/73 30/36/74 42/32/50 41/31/49
s 7
f 30/36/75 39/99/76 43/98/66 42/32/65
f 12/13/55 44/93/54 35/96/77 7/17/78
s 8
f 8/8/79 36/102/80 45/100/58 11/3/57
f 41/107/71 46/105/70 40/109/81 29/110/82
f 48/104/64 47/103/63 46/105/70 37/106/69
s 7
f 38/97/67 43/98/66 50/95/62 49/94/61
s 10
f 67/37/83 68/38/84 54/39/85 53/40/86
s 11
f 60/111/87 70/112/88 71/65/89 56/66/90
s 12
f 72/55/91 73/119/92 59/120/93 55/56/94
s 11
f 77/113/95 78/114/96 70/112/88 60/111/87
s 12
f 59/120/93 73/119/92 75/122/97 76/123/98
s 11
f 68/38/99 69/117/100 64/116/101 54/39/102
s 12
f 63/125/103 74/124/104 67/126/105 53/127/106
s 10
f 51/41/107 52/42/108 68/38/84 67/37/83
s 11
f 52/42/109 65/118/110 69/117/100 68/38/99
f 71/65/89 70/112/88 61/115/111 58/69/112
s 12
f 57/60/113 62/121/114 73/119/92 72/55/91
f 67/126/105 74/124/104 66/128/115 51/129/116
f 76/123/98 75/122/97 74/124/104 63/125/103
s 11
f 64/116/101 69/117/100 78/114/96 77/113/95
s 14
f 103/43/117 104/44/118 82/45/119 81/46/120
s 15
f 104/130/121 88/53/122 84/54/123 82/131/124
s 16
f 90/49/125 91/50/126 97/51/127 98/52/128
s 17
f 99/61/129 100/62/130 94/63/131 89/64/132
s 16
f 88/53/133 91/50/126 90/49/125 84/54/134
f 86/57/135 92/58/136 91/50/126 88/53/133
s 17
f 94/63/131 93/71/137 85/72/138 87/67/139
f 89/64/132 94/63/131 87/67/139 83/68/140
s 16
f 97/51/127 96/59/141 57/60/142 72/55/143
f 98/52/128 97/51/127 72/55/143 55/56/144
s 17
f 71/65/145 100/62/130 99/61/129 56/66/146
f 58/69/147 95/70/148 100/62/130 71/65/145
s off
f 96/133/149 97/134/150 100/135/151 95/136/152
f 97/77/153 91/78/154 94/79/155 100/80/156
f 91/137/157 92/138/158 93/139/159 94/140/160
s 5
f 101/90/48 10/9/47 4/10/161 25/91/162
s 3
f 25/29/163 26/30/164 102/26/38 101/25/37
s 4
f 9/21/44 102/26/43 26/30/165 3/22/166
s off
f 85/72/167 79/47/168 103/43/169 87/67/170
s 14
f 79/47/171 80/48/172 104/44/118 103/43/117
s 15
f 80/132/173 86/57/174 88/53/122 104/130/121
s off
f 83/68/175 87/67/176 103/43/177 81/46/178
