# This file uses meters as units for non-parametric coordinates.

mtllib Terrain_Plane.mtl
g default
v -3105.890869 243.039291 196.069702
v -2634.147949 243.039291 196.069702
v -3105.890869 243.039291 -275.673279
v -2634.147949 243.039291 -275.673279
vt 0.000000 0.000000
vt 1.000000 0.000000
vt 0.000000 1.000000
vt 1.000000 1.000000
vn 0.000000 1.000000 0.000000
vn 0.000000 1.000000 0.000000
vn 0.000000 1.000000 0.000000
vn 0.000000 1.000000 0.000000
s off
g pPlane2
usemtl initialShadingGroup
f 1/1/1 2/2/2 4/4/3 3/3/4
