# This file uses meters as units for non-parametric coordinates.

mtllib TinyHall.mtl
g default
v -269.354222 749.345032 -1921.229728
v -244.420338 716.837585 -1921.229728
v 252.242183 749.345032 -1921.229728
v 224.660961 715.126831 -1921.229728
v 252.242183 537.670654 -2351.556022
v 224.660961 506.897095 -2351.556022
v -269.354222 537.670654 -2351.556022
v -244.420338 507.637573 -2351.556022
v -273.985570 4.023289 -1921.229728
v -244.420338 4.023289 -1921.229728
v -273.985570 4.023289 -2351.556022
v -244.420338 4.023289 -2351.556022
v 224.660961 4.751602 -1921.229728
v 254.226192 4.751602 -1921.229728
v 224.660961 4.751602 -2351.556022
v 254.226192 4.751602 -2351.556022
vt 0.375000 -0.003241
vt 0.649879 -0.001296
vt 0.664345 0.249878
vt 0.375000 0.252314
vt 0.635222 0.500140
vt 0.374996 0.495013
vt 0.628961 0.751336
vt 0.374987 0.756664
vt 0.878955 -0.001296
vt 0.885217 0.249878
vt 0.125000 -0.000810
vt 0.125004 0.251187
vt 0.375000 0.000000
vt 0.625000 0.000000
vt 0.625000 0.254937
vt 0.414162 0.270640
vt 0.624998 0.499999
vt 0.414152 0.485075
vt 0.625000 0.750000
vt 0.375000 0.750000
vt 0.625000 1.000000
vt 0.375000 1.000000
vt 0.875000 0.000000
vt 0.875000 0.225529
vt 0.125000 0.000000
vt 0.164161 0.165565
vt 0.375000 0.000000
vt 0.625000 0.000000
vt 0.608223 0.271564
vt 0.375000 0.257401
vt 0.608216 0.484699
vt 0.375003 0.500015
vt 0.625000 0.750000
vt 0.375000 0.750000
vt 0.625000 1.000000
vt 0.375000 1.000000
vt 0.875000 0.000000
vt 0.858225 0.166191
vt 0.125000 0.000000
vt 0.125000 0.227312
vn 0.000000 0.000000 1.000000
vn 0.000000 0.000000 1.000000
vn 0.000000 0.000000 1.000000
vn 0.000000 0.000000 1.000000
vn 0.000000 0.000000 -1.000000
vn 0.000000 0.000000 -1.000000
vn 0.000000 0.000000 -1.000000
vn 0.000000 0.000000 -1.000000
vn -0.002351 -0.899753 0.436394
vn -0.002351 -0.899753 0.436394
vn -0.002351 -0.899753 0.436394
vn -0.002351 -0.899753 0.436394
vn 0.000000 0.897318 -0.441384
vn 0.000000 0.897318 -0.441384
vn 0.000000 0.897318 -0.441384
vn 0.000000 0.897318 -0.441384
vn -0.000006 0.000000 1.000000
vn -0.000006 0.000000 1.000000
vn -0.000006 0.000000 1.000000
vn -0.000006 0.000000 1.000000
vn -0.000009 0.000000 -1.000000
vn -0.000009 0.000000 -1.000000
vn -0.000009 0.000000 -1.000000
vn -0.000009 0.000000 -1.000000
vn 0.000000 -1.000000 0.000000
vn 0.000000 -1.000000 0.000000
vn 0.000000 -1.000000 0.000000
vn 0.000000 -1.000000 0.000000
vn 1.000000 0.000000 0.000000
vn 1.000000 0.000000 0.000000
vn 1.000000 0.000000 0.000000
vn 1.000000 0.000000 0.000000
vn -0.999972 0.007242 -0.001781
vn -0.999972 0.007242 -0.001781
vn -0.999972 0.007242 -0.001781
vn -0.999972 0.007242 -0.001781
vn -0.000006 0.000000 1.000000
vn -0.000006 0.000000 1.000000
vn -0.000006 0.000000 1.000000
vn -0.000006 0.000000 1.000000
vn 0.000000 0.000000 -1.000000
vn 0.000000 0.000000 -1.000000
vn 0.000000 0.000000 -1.000000
vn 0.000000 0.000000 -1.000000
vn 0.000000 -1.000000 0.000000
vn 0.000000 -1.000000 0.000000
vn 0.000000 -1.000000 0.000000
vn 0.000000 -1.000000 0.000000
vn 0.999995 0.003106 -0.000764
vn 0.999995 0.003106 -0.000764
vn 0.999995 0.003106 -0.000764
vn 0.999995 0.003106 -0.000764
vn -1.000000 0.000000 0.000000
vn -1.000000 0.000000 0.000000
vn -1.000000 0.000000 0.000000
vn -1.000000 0.000000 0.000000
s off
g TinyHall
usemtl initialShadingGroup
f 1/1/1 2/2/2 4/3/3 3/4/4
f 5/6/5 6/5/6 8/7/7 7/8/8
f 2/2/9 8/9/10 6/10/11 4/3/12
f 7/11/13 1/1/14 3/4/15 5/12/16
f 9/13/17 10/14/18 2/15/19 1/16/20
f 7/18/21 8/17/22 12/19/23 11/20/24
f 11/20/25 12/19/26 10/21/27 9/22/28
f 10/14/29 12/23/30 8/24/31 2/15/32
f 11/25/33 9/13/34 1/16/35 7/26/36
f 13/27/37 14/28/38 3/29/39 4/30/40
f 6/32/41 5/31/42 16/33/43 15/34/44
f 15/34/45 16/33/46 14/35/47 13/36/48
f 14/28/49 16/37/50 5/38/51 3/29/52
f 15/39/53 13/27/54 4/30/55 6/40/56
