# This file uses meters as units for non-parametric coordinates.

mtllib TreasureDoor.mtl
g default
v -227.040826 83.812444 -1924.748300
v 189.872870 83.812444 -1924.748300
v -227.040826 723.813351 -1924.748300
v 189.872870 723.813351 -1924.748300
v -227.040826 696.998114 -2004.687028
v 189.872870 696.998114 -2004.687028
v -227.040826 83.812444 -2004.687028
v 189.872870 83.812444 -2004.687028
vt 0.836098 0.241864
vt 0.900560 0.241864
vt 0.900560 0.679689
vt 0.836098 0.698835
vt 0.435440 0.241864
vt 0.499902 0.241864
vt 0.499902 0.698835
vt 0.435440 0.679689
vt 0.836098 0.763297
vt 0.499902 0.763297
vt 0.499902 0.177402
vt 0.836098 0.177402
vt 0.099244 0.679689
vt 0.099244 0.241864
vn 0.000000 0.000000 1.000000
vn 0.000000 0.000000 1.000000
vn 0.000000 0.000000 1.000000
vn 0.000000 0.000000 1.000000
vn 0.000000 0.948080 -0.318031
vn 0.000000 0.948080 -0.318031
vn 0.000000 0.948080 -0.318031
vn 0.000000 0.948080 -0.318031
vn 0.000000 0.000000 -1.000000
vn 0.000000 0.000000 -1.000000
vn 0.000000 0.000000 -1.000000
vn 0.000000 0.000000 -1.000000
vn 0.000000 -1.000000 0.000000
vn 0.000000 -1.000000 0.000000
vn 0.000000 -1.000000 0.000000
vn 0.000000 -1.000000 0.000000
vn 1.000000 0.000000 0.000000
vn 1.000000 0.000000 0.000000
vn 1.000000 0.000000 0.000000
vn 1.000000 0.000000 0.000000
vn -1.000000 0.000000 0.000000
vn -1.000000 0.000000 0.000000
vn -1.000000 0.000000 0.000000
vn -1.000000 0.000000 0.000000
s off
g TreasureDoor
usemtl initialShadingGroup
f 1/6/1 2/1/2 4/4/3 3/7/4
f 3/7/5 4/4/6 6/9/7 5/10/8
f 5/8/9 6/13/10 8/14/11 7/5/12
f 7/11/13 8/12/14 2/1/15 1/6/16
f 2/1/17 8/2/18 6/3/19 4/4/20
f 7/5/21 1/6/22 3/7/23 5/8/24
